<?xml version="1.0" encoding="utf-8" standalone="no"?>
<!DOCTYPE svg PUBLIC "-//W3C//DTD SVG 1.1//EN"
  "http://www.w3.org/Graphics/SVG/1.1/DTD/svg11.dtd">
<svg xmlns:xlink="http://www.w3.org/1999/xlink" width="762.881562pt" height="371.103125pt" viewBox="0 0 762.881562 371.103125" xmlns="http://www.w3.org/2000/svg" version="1.1">
 <metadata>
  <rdf:RDF xmlns:dc="http://purl.org/dc/elements/1.1/" xmlns:cc="http://creativecommons.org/ns#" xmlns:rdf="http://www.w3.org/1999/02/22-rdf-syntax-ns#">
   <cc:Work>
    <dc:type rdf:resource="http://purl.org/dc/dcmitype/StillImage"/>
    <dc:date>2024-01-30T22:11:30.877288</dc:date>
    <dc:format>image/svg+xml</dc:format>
    <dc:creator>
     <cc:Agent>
      <dc:title>Matplotlib v3.7.2, https://matplotlib.org/</dc:title>
     </cc:Agent>
    </dc:creator>
   </cc:Work>
  </rdf:RDF>
 </metadata>
 <defs>
  <style type="text/css">*{stroke-linejoin: round; stroke-linecap: butt}</style>
 </defs>
 <g id="figure_1">
  <g id="patch_1">
   <path d="M 0 371.103125 
L 762.881562 371.103125 
L 762.881562 0 
L 0 0 
z
" style="fill: #ffffff"/>
  </g>
  <g id="axes_1">
   <g id="patch_2">
    <path d="M 50.85875 328.535625 
L 497.25875 328.535625 
L 497.25875 51.335625 
L 50.85875 51.335625 
z
" style="fill: #eaeaf2"/>
   </g>
   <g id="matplotlib.axis_1">
    <g id="xtick_1">
     <g id="text_1">
      <!-- red -->
      <g style="fill: #262626" transform="translate(154.510391 345.909219) scale(0.11 -0.11)">
       <defs>
        <path id="ArialMT-72" d="M 416 0 
L 416 3319 
L 922 3319 
L 922 2816 
Q 1116 3169 1280 3281 
Q 1444 3394 1641 3394 
Q 1925 3394 2219 3213 
L 2025 2691 
Q 1819 2813 1613 2813 
Q 1428 2813 1281 2702 
Q 1134 2591 1072 2394 
Q 978 2094 978 1738 
L 978 0 
L 416 0 
z
" transform="scale(0.015625)"/>
        <path id="ArialMT-65" d="M 2694 1069 
L 3275 997 
Q 3138 488 2766 206 
Q 2394 -75 1816 -75 
Q 1088 -75 661 373 
Q 234 822 234 1631 
Q 234 2469 665 2931 
Q 1097 3394 1784 3394 
Q 2450 3394 2872 2941 
Q 3294 2488 3294 1666 
Q 3294 1616 3291 1516 
L 816 1516 
Q 847 969 1125 678 
Q 1403 388 1819 388 
Q 2128 388 2347 550 
Q 2566 713 2694 1069 
z
M 847 1978 
L 2700 1978 
Q 2663 2397 2488 2606 
Q 2219 2931 1791 2931 
Q 1403 2931 1139 2672 
Q 875 2413 847 1978 
z
" transform="scale(0.015625)"/>
        <path id="ArialMT-64" d="M 2575 0 
L 2575 419 
Q 2259 -75 1647 -75 
Q 1250 -75 917 144 
Q 584 363 401 755 
Q 219 1147 219 1656 
Q 219 2153 384 2558 
Q 550 2963 881 3178 
Q 1213 3394 1622 3394 
Q 1922 3394 2156 3267 
Q 2391 3141 2538 2938 
L 2538 4581 
L 3097 4581 
L 3097 0 
L 2575 0 
z
M 797 1656 
Q 797 1019 1065 703 
Q 1334 388 1700 388 
Q 2069 388 2326 689 
Q 2584 991 2584 1609 
Q 2584 2291 2321 2609 
Q 2059 2928 1675 2928 
Q 1300 2928 1048 2622 
Q 797 2316 797 1656 
z
" transform="scale(0.015625)"/>
       </defs>
       <use xlink:href="#ArialMT-72"/>
       <use xlink:href="#ArialMT-65" x="33.300781"/>
       <use xlink:href="#ArialMT-64" x="88.916016"/>
      </g>
     </g>
    </g>
    <g id="xtick_2">
     <g id="text_2">
      <!-- white -->
      <g style="fill: #262626" transform="translate(372.819687 345.909219) scale(0.11 -0.11)">
       <defs>
        <path id="ArialMT-77" d="M 1034 0 
L 19 3319 
L 600 3319 
L 1128 1403 
L 1325 691 
Q 1338 744 1497 1375 
L 2025 3319 
L 2603 3319 
L 3100 1394 
L 3266 759 
L 3456 1400 
L 4025 3319 
L 4572 3319 
L 3534 0 
L 2950 0 
L 2422 1988 
L 2294 2553 
L 1622 0 
L 1034 0 
z
" transform="scale(0.015625)"/>
        <path id="ArialMT-68" d="M 422 0 
L 422 4581 
L 984 4581 
L 984 2938 
Q 1378 3394 1978 3394 
Q 2347 3394 2619 3248 
Q 2891 3103 3008 2847 
Q 3125 2591 3125 2103 
L 3125 0 
L 2563 0 
L 2563 2103 
Q 2563 2525 2380 2717 
Q 2197 2909 1863 2909 
Q 1613 2909 1392 2779 
Q 1172 2650 1078 2428 
Q 984 2206 984 1816 
L 984 0 
L 422 0 
z
" transform="scale(0.015625)"/>
        <path id="ArialMT-69" d="M 425 3934 
L 425 4581 
L 988 4581 
L 988 3934 
L 425 3934 
z
M 425 0 
L 425 3319 
L 988 3319 
L 988 0 
L 425 0 
z
" transform="scale(0.015625)"/>
        <path id="ArialMT-74" d="M 1650 503 
L 1731 6 
Q 1494 -44 1306 -44 
Q 1000 -44 831 53 
Q 663 150 594 308 
Q 525 466 525 972 
L 525 2881 
L 113 2881 
L 113 3319 
L 525 3319 
L 525 4141 
L 1084 4478 
L 1084 3319 
L 1650 3319 
L 1650 2881 
L 1084 2881 
L 1084 941 
Q 1084 700 1114 631 
Q 1144 563 1211 522 
Q 1278 481 1403 481 
Q 1497 481 1650 503 
z
" transform="scale(0.015625)"/>
       </defs>
       <use xlink:href="#ArialMT-77"/>
       <use xlink:href="#ArialMT-68" x="72.216797"/>
       <use xlink:href="#ArialMT-69" x="127.832031"/>
       <use xlink:href="#ArialMT-74" x="150.048828"/>
       <use xlink:href="#ArialMT-65" x="177.832031"/>
      </g>
     </g>
    </g>
    <g id="text_3">
     <!-- Tipo -->
     <g style="fill: #262626" transform="translate(262.010391 361.122344) scale(0.13 -0.13)">
      <defs>
       <path id="TimesNewRomanPSMT-54" d="M 3703 4238 
L 3750 3244 
L 3631 3244 
Q 3597 3506 3538 3619 
Q 3441 3800 3280 3886 
Q 3119 3972 2856 3972 
L 2259 3972 
L 2259 734 
Q 2259 344 2344 247 
Q 2463 116 2709 116 
L 2856 116 
L 2856 0 
L 1059 0 
L 1059 116 
L 1209 116 
Q 1478 116 1591 278 
Q 1659 378 1659 734 
L 1659 3972 
L 1150 3972 
Q 853 3972 728 3928 
Q 566 3869 450 3700 
Q 334 3531 313 3244 
L 194 3244 
L 244 4238 
L 3703 4238 
z
" transform="scale(0.015625)"/>
       <path id="TimesNewRomanPSMT-69" d="M 928 4444 
Q 1059 4444 1151 4351 
Q 1244 4259 1244 4128 
Q 1244 3997 1151 3903 
Q 1059 3809 928 3809 
Q 797 3809 703 3903 
Q 609 3997 609 4128 
Q 609 4259 701 4351 
Q 794 4444 928 4444 
z
M 1188 2947 
L 1188 647 
Q 1188 378 1227 289 
Q 1266 200 1342 156 
Q 1419 113 1622 113 
L 1622 0 
L 231 0 
L 231 113 
Q 441 113 512 153 
Q 584 194 626 287 
Q 669 381 669 647 
L 669 1750 
Q 669 2216 641 2353 
Q 619 2453 572 2492 
Q 525 2531 444 2531 
Q 356 2531 231 2484 
L 188 2597 
L 1050 2947 
L 1188 2947 
z
" transform="scale(0.015625)"/>
       <path id="TimesNewRomanPSMT-70" d="M -6 2578 
L 875 2934 
L 994 2934 
L 994 2266 
Q 1216 2644 1439 2795 
Q 1663 2947 1909 2947 
Q 2341 2947 2628 2609 
Q 2981 2197 2981 1534 
Q 2981 794 2556 309 
Q 2206 -88 1675 -88 
Q 1444 -88 1275 -22 
Q 1150 25 994 166 
L 994 -706 
Q 994 -1000 1030 -1079 
Q 1066 -1159 1155 -1206 
Q 1244 -1253 1478 -1253 
L 1478 -1369 
L -22 -1369 
L -22 -1253 
L 56 -1253 
Q 228 -1256 350 -1188 
Q 409 -1153 442 -1076 
Q 475 -1000 475 -688 
L 475 2019 
Q 475 2297 450 2372 
Q 425 2447 370 2484 
Q 316 2522 222 2522 
Q 147 2522 31 2478 
L -6 2578 
z
M 994 2081 
L 994 1013 
Q 994 666 1022 556 
Q 1066 375 1236 237 
Q 1406 100 1666 100 
Q 1978 100 2172 344 
Q 2425 663 2425 1241 
Q 2425 1897 2138 2250 
Q 1938 2494 1663 2494 
Q 1513 2494 1366 2419 
Q 1253 2363 994 2081 
z
" transform="scale(0.015625)"/>
       <path id="TimesNewRomanPSMT-6f" d="M 1600 2947 
Q 2250 2947 2644 2453 
Q 2978 2031 2978 1484 
Q 2978 1100 2793 706 
Q 2609 313 2286 112 
Q 1963 -88 1566 -88 
Q 919 -88 538 428 
Q 216 863 216 1403 
Q 216 1797 411 2186 
Q 606 2575 925 2761 
Q 1244 2947 1600 2947 
z
M 1503 2744 
Q 1338 2744 1170 2645 
Q 1003 2547 900 2300 
Q 797 2053 797 1666 
Q 797 1041 1045 587 
Q 1294 134 1700 134 
Q 2003 134 2200 384 
Q 2397 634 2397 1244 
Q 2397 2006 2069 2444 
Q 1847 2744 1503 2744 
z
" transform="scale(0.015625)"/>
      </defs>
      <use xlink:href="#TimesNewRomanPSMT-54"/>
      <use xlink:href="#TimesNewRomanPSMT-69" x="57.583984"/>
      <use xlink:href="#TimesNewRomanPSMT-70" x="85.367188"/>
      <use xlink:href="#TimesNewRomanPSMT-6f" x="135.367188"/>
     </g>
    </g>
   </g>
   <g id="matplotlib.axis_2">
    <g id="ytick_1">
     <g id="line2d_1">
      <path d="M 50.85875 328.535625 
L 497.25875 328.535625 
" clip-path="url(#pe90ccd4795)" style="fill: none; stroke: #ffffff; stroke-linecap: round"/>
     </g>
     <g id="text_4">
      <!-- 0 -->
      <g style="fill: #262626" transform="translate(35.241719 332.472422) scale(0.11 -0.11)">
       <defs>
        <path id="ArialMT-30" d="M 266 2259 
Q 266 3072 433 3567 
Q 600 4063 929 4331 
Q 1259 4600 1759 4600 
Q 2128 4600 2406 4451 
Q 2684 4303 2865 4023 
Q 3047 3744 3150 3342 
Q 3253 2941 3253 2259 
Q 3253 1453 3087 958 
Q 2922 463 2592 192 
Q 2263 -78 1759 -78 
Q 1097 -78 719 397 
Q 266 969 266 2259 
z
M 844 2259 
Q 844 1131 1108 757 
Q 1372 384 1759 384 
Q 2147 384 2411 759 
Q 2675 1134 2675 2259 
Q 2675 3391 2411 3762 
Q 2147 4134 1753 4134 
Q 1366 4134 1134 3806 
Q 844 3388 844 2259 
z
" transform="scale(0.015625)"/>
       </defs>
       <use xlink:href="#ArialMT-30"/>
      </g>
     </g>
    </g>
    <g id="ytick_2">
     <g id="line2d_2">
      <path d="M 50.85875 291.868958 
L 497.25875 291.868958 
" clip-path="url(#pe90ccd4795)" style="fill: none; stroke: #ffffff; stroke-linecap: round"/>
     </g>
     <g id="text_5">
      <!-- 25 -->
      <g style="fill: #262626" transform="translate(29.124688 295.805755) scale(0.11 -0.11)">
       <defs>
        <path id="ArialMT-32" d="M 3222 541 
L 3222 0 
L 194 0 
Q 188 203 259 391 
Q 375 700 629 1000 
Q 884 1300 1366 1694 
Q 2113 2306 2375 2664 
Q 2638 3022 2638 3341 
Q 2638 3675 2398 3904 
Q 2159 4134 1775 4134 
Q 1369 4134 1125 3890 
Q 881 3647 878 3216 
L 300 3275 
Q 359 3922 746 4261 
Q 1134 4600 1788 4600 
Q 2447 4600 2831 4234 
Q 3216 3869 3216 3328 
Q 3216 3053 3103 2787 
Q 2991 2522 2730 2228 
Q 2469 1934 1863 1422 
Q 1356 997 1212 845 
Q 1069 694 975 541 
L 3222 541 
z
" transform="scale(0.015625)"/>
        <path id="ArialMT-35" d="M 266 1200 
L 856 1250 
Q 922 819 1161 601 
Q 1400 384 1738 384 
Q 2144 384 2425 690 
Q 2706 997 2706 1503 
Q 2706 1984 2436 2262 
Q 2166 2541 1728 2541 
Q 1456 2541 1237 2417 
Q 1019 2294 894 2097 
L 366 2166 
L 809 4519 
L 3088 4519 
L 3088 3981 
L 1259 3981 
L 1013 2750 
Q 1425 3038 1878 3038 
Q 2478 3038 2890 2622 
Q 3303 2206 3303 1553 
Q 3303 931 2941 478 
Q 2500 -78 1738 -78 
Q 1113 -78 717 272 
Q 322 622 266 1200 
z
" transform="scale(0.015625)"/>
       </defs>
       <use xlink:href="#ArialMT-32"/>
       <use xlink:href="#ArialMT-35" x="55.615234"/>
      </g>
     </g>
    </g>
    <g id="ytick_3">
     <g id="line2d_3">
      <path d="M 50.85875 255.202292 
L 497.25875 255.202292 
" clip-path="url(#pe90ccd4795)" style="fill: none; stroke: #ffffff; stroke-linecap: round"/>
     </g>
     <g id="text_6">
      <!-- 50 -->
      <g style="fill: #262626" transform="translate(29.124688 259.139089) scale(0.11 -0.11)">
       <use xlink:href="#ArialMT-35"/>
       <use xlink:href="#ArialMT-30" x="55.615234"/>
      </g>
     </g>
    </g>
    <g id="ytick_4">
     <g id="line2d_4">
      <path d="M 50.85875 218.535625 
L 497.25875 218.535625 
" clip-path="url(#pe90ccd4795)" style="fill: none; stroke: #ffffff; stroke-linecap: round"/>
     </g>
     <g id="text_7">
      <!-- 75 -->
      <g style="fill: #262626" transform="translate(29.124688 222.472422) scale(0.11 -0.11)">
       <defs>
        <path id="ArialMT-37" d="M 303 3981 
L 303 4522 
L 3269 4522 
L 3269 4084 
Q 2831 3619 2401 2847 
Q 1972 2075 1738 1259 
Q 1569 684 1522 0 
L 944 0 
Q 953 541 1156 1306 
Q 1359 2072 1739 2783 
Q 2119 3494 2547 3981 
L 303 3981 
z
" transform="scale(0.015625)"/>
       </defs>
       <use xlink:href="#ArialMT-37"/>
       <use xlink:href="#ArialMT-35" x="55.615234"/>
      </g>
     </g>
    </g>
    <g id="ytick_5">
     <g id="line2d_5">
      <path d="M 50.85875 181.868958 
L 497.25875 181.868958 
" clip-path="url(#pe90ccd4795)" style="fill: none; stroke: #ffffff; stroke-linecap: round"/>
     </g>
     <g id="text_8">
      <!-- 100 -->
      <g style="fill: #262626" transform="translate(23.007656 185.805755) scale(0.11 -0.11)">
       <defs>
        <path id="ArialMT-31" d="M 2384 0 
L 1822 0 
L 1822 3584 
Q 1619 3391 1289 3197 
Q 959 3003 697 2906 
L 697 3450 
Q 1169 3672 1522 3987 
Q 1875 4303 2022 4600 
L 2384 4600 
L 2384 0 
z
" transform="scale(0.015625)"/>
       </defs>
       <use xlink:href="#ArialMT-31"/>
       <use xlink:href="#ArialMT-30" x="55.615234"/>
       <use xlink:href="#ArialMT-30" x="111.230469"/>
      </g>
     </g>
    </g>
    <g id="ytick_6">
     <g id="line2d_6">
      <path d="M 50.85875 145.202292 
L 497.25875 145.202292 
" clip-path="url(#pe90ccd4795)" style="fill: none; stroke: #ffffff; stroke-linecap: round"/>
     </g>
     <g id="text_9">
      <!-- 125 -->
      <g style="fill: #262626" transform="translate(23.007656 149.139089) scale(0.11 -0.11)">
       <use xlink:href="#ArialMT-31"/>
       <use xlink:href="#ArialMT-32" x="55.615234"/>
       <use xlink:href="#ArialMT-35" x="111.230469"/>
      </g>
     </g>
    </g>
    <g id="ytick_7">
     <g id="line2d_7">
      <path d="M 50.85875 108.535625 
L 497.25875 108.535625 
" clip-path="url(#pe90ccd4795)" style="fill: none; stroke: #ffffff; stroke-linecap: round"/>
     </g>
     <g id="text_10">
      <!-- 150 -->
      <g style="fill: #262626" transform="translate(23.007656 112.472422) scale(0.11 -0.11)">
       <use xlink:href="#ArialMT-31"/>
       <use xlink:href="#ArialMT-35" x="55.615234"/>
       <use xlink:href="#ArialMT-30" x="111.230469"/>
      </g>
     </g>
    </g>
    <g id="ytick_8">
     <g id="line2d_8">
      <path d="M 50.85875 71.868958 
L 497.25875 71.868958 
" clip-path="url(#pe90ccd4795)" style="fill: none; stroke: #ffffff; stroke-linecap: round"/>
     </g>
     <g id="text_11">
      <!-- 175 -->
      <g style="fill: #262626" transform="translate(23.007656 75.805755) scale(0.11 -0.11)">
       <use xlink:href="#ArialMT-31"/>
       <use xlink:href="#ArialMT-37" x="55.615234"/>
       <use xlink:href="#ArialMT-35" x="111.230469"/>
      </g>
     </g>
    </g>
    <g id="text_12">
     <!-- Quantidade -->
     <g style="fill: #262626" transform="translate(16.226875 219.897578) rotate(-90) scale(0.13 -0.13)">
      <defs>
       <path id="TimesNewRomanPSMT-51" d="M 2819 -47 
Q 3138 -597 3508 -856 
Q 3878 -1116 4350 -1153 
L 4350 -1253 
Q 3919 -1238 3428 -1080 
Q 2938 -922 2498 -642 
Q 2059 -363 1741 -47 
Q 1291 134 1028 338 
Q 647 641 436 1083 
Q 225 1525 225 2128 
Q 225 3078 840 3706 
Q 1456 4334 2331 4334 
Q 3163 4334 3770 3704 
Q 4378 3075 4378 2116 
Q 4378 1338 3945 750 
Q 3513 163 2819 -47 
z
M 2294 4094 
Q 1725 4094 1378 3688 
Q 941 3178 941 2128 
Q 941 1100 1384 544 
Q 1728 116 2294 116 
Q 2881 116 3241 544 
Q 3663 1050 3663 2038 
Q 3663 2797 3431 3316 
Q 3253 3716 2958 3905 
Q 2663 4094 2294 4094 
z
" transform="scale(0.015625)"/>
       <path id="TimesNewRomanPSMT-75" d="M 2709 2863 
L 2709 1128 
Q 2709 631 2732 520 
Q 2756 409 2807 365 
Q 2859 322 2928 322 
Q 3025 322 3147 375 
L 3191 266 
L 2334 -88 
L 2194 -88 
L 2194 519 
Q 1825 119 1631 15 
Q 1438 -88 1222 -88 
Q 981 -88 804 51 
Q 628 191 559 409 
Q 491 628 491 1028 
L 491 2306 
Q 491 2509 447 2587 
Q 403 2666 317 2708 
Q 231 2750 6 2747 
L 6 2863 
L 1009 2863 
L 1009 947 
Q 1009 547 1148 422 
Q 1288 297 1484 297 
Q 1619 297 1789 381 
Q 1959 466 2194 703 
L 2194 2325 
Q 2194 2569 2105 2655 
Q 2016 2741 1734 2747 
L 1734 2863 
L 2709 2863 
z
" transform="scale(0.015625)"/>
       <path id="TimesNewRomanPSMT-61" d="M 1822 413 
Q 1381 72 1269 19 
Q 1100 -59 909 -59 
Q 613 -59 420 144 
Q 228 347 228 678 
Q 228 888 322 1041 
Q 450 1253 767 1440 
Q 1084 1628 1822 1897 
L 1822 2009 
Q 1822 2438 1686 2597 
Q 1550 2756 1291 2756 
Q 1094 2756 978 2650 
Q 859 2544 859 2406 
L 866 2225 
Q 866 2081 792 2003 
Q 719 1925 600 1925 
Q 484 1925 411 2006 
Q 338 2088 338 2228 
Q 338 2497 613 2722 
Q 888 2947 1384 2947 
Q 1766 2947 2009 2819 
Q 2194 2722 2281 2516 
Q 2338 2381 2338 1966 
L 2338 994 
Q 2338 584 2353 492 
Q 2369 400 2405 369 
Q 2441 338 2488 338 
Q 2538 338 2575 359 
Q 2641 400 2828 588 
L 2828 413 
Q 2478 -56 2159 -56 
Q 2006 -56 1915 50 
Q 1825 156 1822 413 
z
M 1822 616 
L 1822 1706 
Q 1350 1519 1213 1441 
Q 966 1303 859 1153 
Q 753 1003 753 825 
Q 753 600 887 451 
Q 1022 303 1197 303 
Q 1434 303 1822 616 
z
" transform="scale(0.015625)"/>
       <path id="TimesNewRomanPSMT-6e" d="M 1034 2341 
Q 1538 2947 1994 2947 
Q 2228 2947 2397 2830 
Q 2566 2713 2666 2444 
Q 2734 2256 2734 1869 
L 2734 647 
Q 2734 375 2778 278 
Q 2813 200 2889 156 
Q 2966 113 3172 113 
L 3172 0 
L 1756 0 
L 1756 113 
L 1816 113 
Q 2016 113 2095 173 
Q 2175 234 2206 353 
Q 2219 400 2219 647 
L 2219 1819 
Q 2219 2209 2117 2386 
Q 2016 2563 1775 2563 
Q 1403 2563 1034 2156 
L 1034 647 
Q 1034 356 1069 288 
Q 1113 197 1189 155 
Q 1266 113 1500 113 
L 1500 0 
L 84 0 
L 84 113 
L 147 113 
Q 366 113 442 223 
Q 519 334 519 647 
L 519 1709 
Q 519 2225 495 2337 
Q 472 2450 423 2490 
Q 375 2531 294 2531 
Q 206 2531 84 2484 
L 38 2597 
L 900 2947 
L 1034 2947 
L 1034 2341 
z
" transform="scale(0.015625)"/>
       <path id="TimesNewRomanPSMT-74" d="M 1031 3803 
L 1031 2863 
L 1700 2863 
L 1700 2644 
L 1031 2644 
L 1031 788 
Q 1031 509 1111 412 
Q 1191 316 1316 316 
Q 1419 316 1516 380 
Q 1613 444 1666 569 
L 1788 569 
Q 1678 263 1478 108 
Q 1278 -47 1066 -47 
Q 922 -47 784 33 
Q 647 113 581 261 
Q 516 409 516 719 
L 516 2644 
L 63 2644 
L 63 2747 
Q 234 2816 414 2980 
Q 594 3144 734 3369 
Q 806 3488 934 3803 
L 1031 3803 
z
" transform="scale(0.015625)"/>
       <path id="TimesNewRomanPSMT-64" d="M 2222 322 
Q 2013 103 1813 7 
Q 1613 -88 1381 -88 
Q 913 -88 563 304 
Q 213 697 213 1313 
Q 213 1928 600 2439 
Q 988 2950 1597 2950 
Q 1975 2950 2222 2709 
L 2222 3238 
Q 2222 3728 2198 3840 
Q 2175 3953 2125 3993 
Q 2075 4034 2000 4034 
Q 1919 4034 1784 3984 
L 1744 4094 
L 2597 4444 
L 2738 4444 
L 2738 1134 
Q 2738 631 2761 520 
Q 2784 409 2836 365 
Q 2888 322 2956 322 
Q 3041 322 3181 375 
L 3216 266 
L 2366 -88 
L 2222 -88 
L 2222 322 
z
M 2222 541 
L 2222 2016 
Q 2203 2228 2109 2403 
Q 2016 2578 1861 2667 
Q 1706 2756 1559 2756 
Q 1284 2756 1069 2509 
Q 784 2184 784 1559 
Q 784 928 1059 592 
Q 1334 256 1672 256 
Q 1956 256 2222 541 
z
" transform="scale(0.015625)"/>
       <path id="TimesNewRomanPSMT-65" d="M 681 1784 
Q 678 1147 991 784 
Q 1303 422 1725 422 
Q 2006 422 2214 576 
Q 2422 731 2563 1106 
L 2659 1044 
Q 2594 616 2278 264 
Q 1963 -88 1488 -88 
Q 972 -88 605 314 
Q 238 716 238 1394 
Q 238 2128 614 2539 
Q 991 2950 1559 2950 
Q 2041 2950 2350 2633 
Q 2659 2316 2659 1784 
L 681 1784 
z
M 681 1966 
L 2006 1966 
Q 1991 2241 1941 2353 
Q 1863 2528 1708 2628 
Q 1553 2728 1384 2728 
Q 1125 2728 920 2526 
Q 716 2325 681 1966 
z
" transform="scale(0.015625)"/>
      </defs>
      <use xlink:href="#TimesNewRomanPSMT-51"/>
      <use xlink:href="#TimesNewRomanPSMT-75" x="72.216797"/>
      <use xlink:href="#TimesNewRomanPSMT-61" x="122.216797"/>
      <use xlink:href="#TimesNewRomanPSMT-6e" x="166.601562"/>
      <use xlink:href="#TimesNewRomanPSMT-74" x="216.601562"/>
      <use xlink:href="#TimesNewRomanPSMT-69" x="244.384766"/>
      <use xlink:href="#TimesNewRomanPSMT-64" x="272.167969"/>
      <use xlink:href="#TimesNewRomanPSMT-61" x="322.167969"/>
      <use xlink:href="#TimesNewRomanPSMT-64" x="366.552734"/>
      <use xlink:href="#TimesNewRomanPSMT-65" x="416.552734"/>
     </g>
    </g>
   </g>
   <g id="patch_3">
    <path d="M 117.81875 328.535625 
L 207.09875 328.535625 
L 207.09875 302.135625 
L 117.81875 302.135625 
z
" clip-path="url(#pe90ccd4795)" style="fill: #ce6d6c; stroke: #ffffff; stroke-linejoin: miter"/>
   </g>
   <g id="patch_4">
    <path d="M 341.01875 328.535625 
L 430.29875 328.535625 
L 430.29875 64.535625 
L 341.01875 64.535625 
z
" clip-path="url(#pe90ccd4795)" style="fill: #8d426e; stroke: #ffffff; stroke-linejoin: miter"/>
   </g>
   <g id="patch_5">
    <path d="M 50.85875 328.535625 
L 50.85875 51.335625 
" style="fill: none; stroke: #ffffff; stroke-width: 1.25; stroke-linejoin: miter; stroke-linecap: square"/>
   </g>
   <g id="patch_6">
    <path d="M 497.25875 328.535625 
L 497.25875 51.335625 
" style="fill: none; stroke: #ffffff; stroke-width: 1.25; stroke-linejoin: miter; stroke-linecap: square"/>
   </g>
   <g id="patch_7">
    <path d="M 50.85875 328.535625 
L 497.25875 328.535625 
" style="fill: none; stroke: #ffffff; stroke-width: 1.25; stroke-linejoin: miter; stroke-linecap: square"/>
   </g>
   <g id="patch_8">
    <path d="M 50.85875 51.335625 
L 497.25875 51.335625 
" style="fill: none; stroke: #ffffff; stroke-width: 1.25; stroke-linejoin: miter; stroke-linecap: square"/>
   </g>
   <g id="text_13">
    <!-- 18.0 -->
    <g style="fill: #262626" transform="translate(150.782188 299.750625) scale(0.12 -0.12)">
     <defs>
      <path id="ArialMT-38" d="M 1131 2484 
Q 781 2613 612 2850 
Q 444 3088 444 3419 
Q 444 3919 803 4259 
Q 1163 4600 1759 4600 
Q 2359 4600 2725 4251 
Q 3091 3903 3091 3403 
Q 3091 3084 2923 2848 
Q 2756 2613 2416 2484 
Q 2838 2347 3058 2040 
Q 3278 1734 3278 1309 
Q 3278 722 2862 322 
Q 2447 -78 1769 -78 
Q 1091 -78 675 323 
Q 259 725 259 1325 
Q 259 1772 486 2073 
Q 713 2375 1131 2484 
z
M 1019 3438 
Q 1019 3113 1228 2906 
Q 1438 2700 1772 2700 
Q 2097 2700 2305 2904 
Q 2513 3109 2513 3406 
Q 2513 3716 2298 3927 
Q 2084 4138 1766 4138 
Q 1444 4138 1231 3931 
Q 1019 3725 1019 3438 
z
M 838 1322 
Q 838 1081 952 856 
Q 1066 631 1291 507 
Q 1516 384 1775 384 
Q 2178 384 2440 643 
Q 2703 903 2703 1303 
Q 2703 1709 2433 1975 
Q 2163 2241 1756 2241 
Q 1359 2241 1098 1978 
Q 838 1716 838 1322 
z
" transform="scale(0.015625)"/>
      <path id="ArialMT-2e" d="M 581 0 
L 581 641 
L 1222 641 
L 1222 0 
L 581 0 
z
" transform="scale(0.015625)"/>
     </defs>
     <use xlink:href="#ArialMT-31"/>
     <use xlink:href="#ArialMT-38" x="55.615234"/>
     <use xlink:href="#ArialMT-2e" x="111.230469"/>
     <use xlink:href="#ArialMT-30" x="139.013672"/>
    </g>
   </g>
   <g id="text_14">
    <!-- 180.0 -->
    <g style="fill: #262626" transform="translate(370.645625 62.150625) scale(0.12 -0.12)">
     <use xlink:href="#ArialMT-31"/>
     <use xlink:href="#ArialMT-38" x="55.615234"/>
     <use xlink:href="#ArialMT-30" x="111.230469"/>
     <use xlink:href="#ArialMT-2e" x="166.845703"/>
     <use xlink:href="#ArialMT-30" x="194.628906"/>
    </g>
   </g>
   <g id="text_15">
    <!-- Aqui vemos uma grande disparidade na qualidade -->
    <g style="fill: #262626" transform="translate(511.213437 64.98825) scale(0.12 -0.12)">
     <defs>
      <path id="TimesNewRomanPSMT-41" d="M 2928 1419 
L 1288 1419 
L 1000 750 
Q 894 503 894 381 
Q 894 284 986 211 
Q 1078 138 1384 116 
L 1384 0 
L 50 0 
L 50 116 
Q 316 163 394 238 
Q 553 388 747 847 
L 2238 4334 
L 2347 4334 
L 3822 809 
Q 4000 384 4145 257 
Q 4291 131 4550 116 
L 4550 0 
L 2878 0 
L 2878 116 
Q 3131 128 3220 200 
Q 3309 272 3309 375 
Q 3309 513 3184 809 
L 2928 1419 
z
M 2841 1650 
L 2122 3363 
L 1384 1650 
L 2841 1650 
z
" transform="scale(0.015625)"/>
      <path id="TimesNewRomanPSMT-71" d="M 2734 2947 
L 2734 -734 
Q 2734 -1009 2771 -1087 
Q 2809 -1166 2889 -1209 
Q 2969 -1253 3200 -1253 
L 3200 -1369 
L 1756 -1369 
L 1756 -1253 
L 1816 -1253 
Q 1991 -1253 2081 -1203 
Q 2144 -1169 2181 -1080 
Q 2219 -991 2219 -734 
L 2219 497 
Q 1934 159 1721 35 
Q 1509 -88 1281 -88 
Q 866 -88 539 290 
Q 213 669 213 1303 
Q 213 2031 644 2489 
Q 1075 2947 1684 2947 
Q 1863 2947 2013 2897 
Q 2163 2847 2281 2747 
Q 2463 2834 2628 2947 
L 2734 2947 
z
M 2219 694 
L 2219 2038 
Q 2219 2272 2158 2406 
Q 2097 2541 1940 2634 
Q 1784 2728 1588 2728 
Q 1238 2728 988 2431 
Q 738 2134 738 1531 
Q 738 953 992 653 
Q 1247 353 1606 353 
Q 1791 353 1934 433 
Q 2078 513 2219 694 
z
" transform="scale(0.015625)"/>
      <path id="TimesNewRomanPSMT-20" transform="scale(0.015625)"/>
      <path id="TimesNewRomanPSMT-76" d="M 53 2863 
L 1400 2863 
L 1400 2747 
L 1313 2747 
Q 1191 2747 1127 2687 
Q 1063 2628 1063 2528 
Q 1063 2419 1128 2269 
L 1794 688 
L 2463 2328 
Q 2534 2503 2534 2594 
Q 2534 2638 2509 2666 
Q 2475 2713 2422 2730 
Q 2369 2747 2206 2747 
L 2206 2863 
L 3141 2863 
L 3141 2747 
Q 2978 2734 2916 2681 
Q 2806 2588 2719 2369 
L 1703 -88 
L 1575 -88 
L 553 2328 
Q 484 2497 421 2570 
Q 359 2644 263 2694 
Q 209 2722 53 2747 
L 53 2863 
z
" transform="scale(0.015625)"/>
      <path id="TimesNewRomanPSMT-6d" d="M 1050 2338 
Q 1363 2650 1419 2697 
Q 1559 2816 1721 2881 
Q 1884 2947 2044 2947 
Q 2313 2947 2506 2790 
Q 2700 2634 2766 2338 
Q 3088 2713 3309 2830 
Q 3531 2947 3766 2947 
Q 3994 2947 4170 2830 
Q 4347 2713 4450 2447 
Q 4519 2266 4519 1878 
L 4519 647 
Q 4519 378 4559 278 
Q 4591 209 4675 161 
Q 4759 113 4950 113 
L 4950 0 
L 3538 0 
L 3538 113 
L 3597 113 
Q 3781 113 3884 184 
Q 3956 234 3988 344 
Q 4000 397 4000 647 
L 4000 1878 
Q 4000 2228 3916 2372 
Q 3794 2572 3525 2572 
Q 3359 2572 3192 2489 
Q 3025 2406 2788 2181 
L 2781 2147 
L 2788 2013 
L 2788 647 
Q 2788 353 2820 281 
Q 2853 209 2943 161 
Q 3034 113 3253 113 
L 3253 0 
L 1806 0 
L 1806 113 
Q 2044 113 2133 169 
Q 2222 225 2256 338 
Q 2272 391 2272 647 
L 2272 1878 
Q 2272 2228 2169 2381 
Q 2031 2581 1784 2581 
Q 1616 2581 1450 2491 
Q 1191 2353 1050 2181 
L 1050 647 
Q 1050 366 1089 281 
Q 1128 197 1204 155 
Q 1281 113 1516 113 
L 1516 0 
L 100 0 
L 100 113 
Q 297 113 375 155 
Q 453 197 493 289 
Q 534 381 534 647 
L 534 1741 
Q 534 2213 506 2350 
Q 484 2453 437 2492 
Q 391 2531 309 2531 
Q 222 2531 100 2484 
L 53 2597 
L 916 2947 
L 1050 2947 
L 1050 2338 
z
" transform="scale(0.015625)"/>
      <path id="TimesNewRomanPSMT-73" d="M 2050 2947 
L 2050 1972 
L 1947 1972 
Q 1828 2431 1642 2597 
Q 1456 2763 1169 2763 
Q 950 2763 815 2647 
Q 681 2531 681 2391 
Q 681 2216 781 2091 
Q 878 1963 1175 1819 
L 1631 1597 
Q 2266 1288 2266 781 
Q 2266 391 1970 151 
Q 1675 -88 1309 -88 
Q 1047 -88 709 6 
Q 606 38 541 38 
Q 469 38 428 -44 
L 325 -44 
L 325 978 
L 428 978 
Q 516 541 762 319 
Q 1009 97 1316 97 
Q 1531 97 1667 223 
Q 1803 350 1803 528 
Q 1803 744 1651 891 
Q 1500 1038 1047 1263 
Q 594 1488 453 1669 
Q 313 1847 313 2119 
Q 313 2472 555 2709 
Q 797 2947 1181 2947 
Q 1350 2947 1591 2875 
Q 1750 2828 1803 2828 
Q 1853 2828 1881 2850 
Q 1909 2872 1947 2947 
L 2050 2947 
z
" transform="scale(0.015625)"/>
      <path id="TimesNewRomanPSMT-67" d="M 966 1044 
Q 703 1172 562 1401 
Q 422 1631 422 1909 
Q 422 2334 742 2640 
Q 1063 2947 1563 2947 
Q 1972 2947 2272 2747 
L 2878 2747 
Q 3013 2747 3034 2739 
Q 3056 2731 3066 2713 
Q 3084 2684 3084 2613 
Q 3084 2531 3069 2500 
Q 3059 2484 3036 2475 
Q 3013 2466 2878 2466 
L 2506 2466 
Q 2681 2241 2681 1891 
Q 2681 1491 2375 1206 
Q 2069 922 1553 922 
Q 1341 922 1119 984 
Q 981 866 932 777 
Q 884 688 884 625 
Q 884 572 936 522 
Q 988 472 1138 450 
Q 1225 438 1575 428 
Q 2219 413 2409 384 
Q 2700 344 2873 169 
Q 3047 -6 3047 -263 
Q 3047 -616 2716 -925 
Q 2228 -1381 1444 -1381 
Q 841 -1381 425 -1109 
Q 191 -953 191 -784 
Q 191 -709 225 -634 
Q 278 -519 444 -313 
Q 466 -284 763 25 
Q 600 122 533 198 
Q 466 275 466 372 
Q 466 481 555 628 
Q 644 775 966 1044 
z
M 1509 2797 
Q 1278 2797 1122 2612 
Q 966 2428 966 2047 
Q 966 1553 1178 1281 
Q 1341 1075 1591 1075 
Q 1828 1075 1981 1253 
Q 2134 1431 2134 1813 
Q 2134 2309 1919 2591 
Q 1759 2797 1509 2797 
z
M 934 0 
Q 788 -159 713 -296 
Q 638 -434 638 -550 
Q 638 -700 819 -813 
Q 1131 -1006 1722 -1006 
Q 2284 -1006 2551 -807 
Q 2819 -609 2819 -384 
Q 2819 -222 2659 -153 
Q 2497 -84 2016 -72 
Q 1313 -53 934 0 
z
" transform="scale(0.015625)"/>
      <path id="TimesNewRomanPSMT-72" d="M 1038 2947 
L 1038 2303 
Q 1397 2947 1775 2947 
Q 1947 2947 2059 2842 
Q 2172 2738 2172 2600 
Q 2172 2478 2090 2393 
Q 2009 2309 1897 2309 
Q 1788 2309 1652 2417 
Q 1516 2525 1450 2525 
Q 1394 2525 1328 2463 
Q 1188 2334 1038 2041 
L 1038 669 
Q 1038 431 1097 309 
Q 1138 225 1241 169 
Q 1344 113 1538 113 
L 1538 0 
L 72 0 
L 72 113 
Q 291 113 397 181 
Q 475 231 506 341 
Q 522 394 522 644 
L 522 1753 
Q 522 2253 501 2348 
Q 481 2444 426 2487 
Q 372 2531 291 2531 
Q 194 2531 72 2484 
L 41 2597 
L 906 2947 
L 1038 2947 
z
" transform="scale(0.015625)"/>
      <path id="TimesNewRomanPSMT-6c" d="M 1184 4444 
L 1184 647 
Q 1184 378 1223 290 
Q 1263 203 1344 158 
Q 1425 113 1647 113 
L 1647 0 
L 244 0 
L 244 113 
Q 441 113 512 153 
Q 584 194 625 287 
Q 666 381 666 647 
L 666 3247 
Q 666 3731 644 3842 
Q 622 3953 573 3993 
Q 525 4034 450 4034 
Q 369 4034 244 3984 
L 191 4094 
L 1044 4444 
L 1184 4444 
z
" transform="scale(0.015625)"/>
     </defs>
     <use xlink:href="#TimesNewRomanPSMT-41"/>
     <use xlink:href="#TimesNewRomanPSMT-71" x="72.216797"/>
     <use xlink:href="#TimesNewRomanPSMT-75" x="122.216797"/>
     <use xlink:href="#TimesNewRomanPSMT-69" x="172.216797"/>
     <use xlink:href="#TimesNewRomanPSMT-20" x="200"/>
     <use xlink:href="#TimesNewRomanPSMT-76" x="225"/>
     <use xlink:href="#TimesNewRomanPSMT-65" x="275"/>
     <use xlink:href="#TimesNewRomanPSMT-6d" x="319.384766"/>
     <use xlink:href="#TimesNewRomanPSMT-6f" x="397.167969"/>
     <use xlink:href="#TimesNewRomanPSMT-73" x="447.167969"/>
     <use xlink:href="#TimesNewRomanPSMT-20" x="486.083984"/>
     <use xlink:href="#TimesNewRomanPSMT-75" x="511.083984"/>
     <use xlink:href="#TimesNewRomanPSMT-6d" x="561.083984"/>
     <use xlink:href="#TimesNewRomanPSMT-61" x="638.867188"/>
     <use xlink:href="#TimesNewRomanPSMT-20" x="683.251953"/>
     <use xlink:href="#TimesNewRomanPSMT-67" x="708.251953"/>
     <use xlink:href="#TimesNewRomanPSMT-72" x="758.251953"/>
     <use xlink:href="#TimesNewRomanPSMT-61" x="791.552734"/>
     <use xlink:href="#TimesNewRomanPSMT-6e" x="835.9375"/>
     <use xlink:href="#TimesNewRomanPSMT-64" x="885.9375"/>
     <use xlink:href="#TimesNewRomanPSMT-65" x="935.9375"/>
     <use xlink:href="#TimesNewRomanPSMT-20" x="980.322266"/>
     <use xlink:href="#TimesNewRomanPSMT-64" x="1005.322266"/>
     <use xlink:href="#TimesNewRomanPSMT-69" x="1055.322266"/>
     <use xlink:href="#TimesNewRomanPSMT-73" x="1083.105469"/>
     <use xlink:href="#TimesNewRomanPSMT-70" x="1122.021484"/>
     <use xlink:href="#TimesNewRomanPSMT-61" x="1172.021484"/>
     <use xlink:href="#TimesNewRomanPSMT-72" x="1216.40625"/>
     <use xlink:href="#TimesNewRomanPSMT-69" x="1249.707031"/>
     <use xlink:href="#TimesNewRomanPSMT-64" x="1277.490234"/>
     <use xlink:href="#TimesNewRomanPSMT-61" x="1327.490234"/>
     <use xlink:href="#TimesNewRomanPSMT-64" x="1371.875"/>
     <use xlink:href="#TimesNewRomanPSMT-65" x="1421.875"/>
     <use xlink:href="#TimesNewRomanPSMT-20" x="1466.259766"/>
     <use xlink:href="#TimesNewRomanPSMT-6e" x="1491.259766"/>
     <use xlink:href="#TimesNewRomanPSMT-61" x="1541.259766"/>
     <use xlink:href="#TimesNewRomanPSMT-20" x="1585.644531"/>
     <use xlink:href="#TimesNewRomanPSMT-71" x="1610.644531"/>
     <use xlink:href="#TimesNewRomanPSMT-75" x="1660.644531"/>
     <use xlink:href="#TimesNewRomanPSMT-61" x="1710.644531"/>
     <use xlink:href="#TimesNewRomanPSMT-6c" x="1755.029297"/>
     <use xlink:href="#TimesNewRomanPSMT-69" x="1782.8125"/>
     <use xlink:href="#TimesNewRomanPSMT-64" x="1810.595703"/>
     <use xlink:href="#TimesNewRomanPSMT-61" x="1860.595703"/>
     <use xlink:href="#TimesNewRomanPSMT-64" x="1904.980469"/>
     <use xlink:href="#TimesNewRomanPSMT-65" x="1954.980469"/>
    </g>
    <!-- do vinho branco para o vinho tinto. Essa distinção -->
    <g style="fill: #262626" transform="translate(511.033437 77.576625) scale(0.12 -0.12)">
     <defs>
      <path id="TimesNewRomanPSMT-68" d="M 1041 4444 
L 1041 2350 
Q 1388 2731 1591 2839 
Q 1794 2947 1997 2947 
Q 2241 2947 2416 2812 
Q 2591 2678 2675 2391 
Q 2734 2191 2734 1659 
L 2734 647 
Q 2734 375 2778 275 
Q 2809 200 2884 156 
Q 2959 113 3159 113 
L 3159 0 
L 1753 0 
L 1753 113 
L 1819 113 
Q 2019 113 2097 173 
Q 2175 234 2206 353 
Q 2216 403 2216 647 
L 2216 1659 
Q 2216 2128 2167 2275 
Q 2119 2422 2012 2495 
Q 1906 2569 1756 2569 
Q 1603 2569 1437 2487 
Q 1272 2406 1041 2159 
L 1041 647 
Q 1041 353 1073 281 
Q 1106 209 1195 161 
Q 1284 113 1503 113 
L 1503 0 
L 84 0 
L 84 113 
Q 275 113 384 172 
Q 447 203 484 290 
Q 522 378 522 647 
L 522 3238 
Q 522 3728 498 3840 
Q 475 3953 426 3993 
Q 378 4034 297 4034 
Q 231 4034 84 3984 
L 41 4094 
L 897 4444 
L 1041 4444 
z
" transform="scale(0.015625)"/>
      <path id="TimesNewRomanPSMT-62" d="M 984 2369 
Q 1400 2947 1881 2947 
Q 2322 2947 2650 2570 
Q 2978 2194 2978 1541 
Q 2978 778 2472 313 
Q 2038 -88 1503 -88 
Q 1253 -88 995 3 
Q 738 94 469 275 
L 469 3241 
Q 469 3728 445 3840 
Q 422 3953 372 3993 
Q 322 4034 247 4034 
Q 159 4034 28 3984 
L -16 4094 
L 844 4444 
L 984 4444 
L 984 2369 
z
M 984 2169 
L 984 456 
Q 1144 300 1314 220 
Q 1484 141 1663 141 
Q 1947 141 2192 453 
Q 2438 766 2438 1363 
Q 2438 1913 2192 2208 
Q 1947 2503 1634 2503 
Q 1469 2503 1303 2419 
Q 1178 2356 984 2169 
z
" transform="scale(0.015625)"/>
      <path id="TimesNewRomanPSMT-63" d="M 2631 1088 
Q 2516 522 2178 217 
Q 1841 -88 1431 -88 
Q 944 -88 581 321 
Q 219 731 219 1428 
Q 219 2103 620 2525 
Q 1022 2947 1584 2947 
Q 2006 2947 2278 2723 
Q 2550 2500 2550 2259 
Q 2550 2141 2473 2067 
Q 2397 1994 2259 1994 
Q 2075 1994 1981 2113 
Q 1928 2178 1911 2362 
Q 1894 2547 1784 2644 
Q 1675 2738 1481 2738 
Q 1169 2738 978 2506 
Q 725 2200 725 1697 
Q 725 1184 976 792 
Q 1228 400 1656 400 
Q 1963 400 2206 609 
Q 2378 753 2541 1131 
L 2631 1088 
z
" transform="scale(0.015625)"/>
      <path id="TimesNewRomanPSMT-2e" d="M 800 606 
Q 947 606 1047 504 
Q 1147 403 1147 259 
Q 1147 116 1045 14 
Q 944 -88 800 -88 
Q 656 -88 554 14 
Q 453 116 453 259 
Q 453 406 554 506 
Q 656 606 800 606 
z
" transform="scale(0.015625)"/>
      <path id="TimesNewRomanPSMT-45" d="M 1338 4006 
L 1338 2331 
L 2269 2331 
Q 2631 2331 2753 2441 
Q 2916 2584 2934 2947 
L 3050 2947 
L 3050 1472 
L 2934 1472 
Q 2891 1781 2847 1869 
Q 2791 1978 2662 2040 
Q 2534 2103 2269 2103 
L 1338 2103 
L 1338 706 
Q 1338 425 1363 364 
Q 1388 303 1450 267 
Q 1513 231 1688 231 
L 2406 231 
Q 2766 231 2928 281 
Q 3091 331 3241 478 
Q 3434 672 3638 1063 
L 3763 1063 
L 3397 0 
L 131 0 
L 131 116 
L 281 116 
Q 431 116 566 188 
Q 666 238 702 338 
Q 738 438 738 747 
L 738 3500 
Q 738 3903 656 3997 
Q 544 4122 281 4122 
L 131 4122 
L 131 4238 
L 3397 4238 
L 3444 3309 
L 3322 3309 
Q 3256 3644 3176 3769 
Q 3097 3894 2941 3959 
Q 2816 4006 2500 4006 
L 1338 4006 
z
" transform="scale(0.015625)"/>
      <path id="TimesNewRomanPSMT-e7" d="M 2631 1088 
Q 2516 522 2178 217 
Q 1841 -88 1431 -88 
Q 944 -88 581 321 
Q 219 731 219 1428 
Q 219 2103 620 2525 
Q 1022 2947 1584 2947 
Q 2006 2947 2278 2723 
Q 2550 2500 2550 2259 
Q 2550 2141 2473 2067 
Q 2397 1994 2259 1994 
Q 2075 1994 1981 2113 
Q 1928 2178 1911 2362 
Q 1894 2547 1784 2644 
Q 1675 2738 1481 2738 
Q 1169 2738 978 2506 
Q 725 2200 725 1697 
Q 725 1184 976 792 
Q 1228 400 1656 400 
Q 1963 400 2206 609 
Q 2378 753 2541 1131 
L 2631 1088 
z
M 1469 50 
L 1656 50 
L 1500 -197 
Q 1697 -247 1794 -365 
Q 1891 -484 1891 -653 
Q 1891 -878 1703 -1048 
Q 1516 -1219 1219 -1219 
Q 1103 -1219 925 -1197 
L 925 -1063 
Q 1013 -1075 1075 -1075 
Q 1234 -1075 1343 -970 
Q 1453 -866 1453 -731 
Q 1453 -638 1381 -569 
Q 1309 -500 1203 -500 
Q 1172 -500 1122 -506 
L 1469 50 
z
" transform="scale(0.015625)"/>
      <path id="TimesNewRomanPSMT-e3" d="M 1822 413 
Q 1381 72 1269 19 
Q 1100 -59 909 -59 
Q 613 -59 420 144 
Q 228 347 228 678 
Q 228 888 322 1041 
Q 450 1253 767 1440 
Q 1084 1628 1822 1897 
L 1822 2009 
Q 1822 2438 1686 2597 
Q 1550 2756 1291 2756 
Q 1094 2756 978 2650 
Q 859 2544 859 2406 
L 866 2225 
Q 866 2081 792 2003 
Q 719 1925 600 1925 
Q 484 1925 411 2006 
Q 338 2088 338 2228 
Q 338 2497 613 2722 
Q 888 2947 1384 2947 
Q 1766 2947 2009 2819 
Q 2194 2722 2281 2516 
Q 2338 2381 2338 1966 
L 2338 994 
Q 2338 584 2353 492 
Q 2369 400 2405 369 
Q 2441 338 2488 338 
Q 2538 338 2575 359 
Q 2641 400 2828 588 
L 2828 413 
Q 2478 -56 2159 -56 
Q 2006 -56 1915 50 
Q 1825 156 1822 413 
z
M 1822 616 
L 1822 1706 
Q 1350 1519 1213 1441 
Q 966 1303 859 1153 
Q 753 1003 753 825 
Q 753 600 887 451 
Q 1022 303 1197 303 
Q 1434 303 1822 616 
z
M 534 3428 
L 434 3428 
Q 447 3856 612 4047 
Q 778 4238 1022 4238 
Q 1150 4238 1256 4197 
Q 1397 4144 1655 3973 
Q 1913 3803 2038 3803 
Q 2138 3803 2214 3887 
Q 2291 3972 2334 4238 
L 2431 4238 
Q 2434 3947 2354 3776 
Q 2275 3606 2129 3511 
Q 1984 3416 1838 3416 
Q 1591 3416 1225 3666 
Q 1028 3800 959 3828 
Q 891 3856 825 3856 
Q 697 3856 622 3744 
Q 588 3691 534 3428 
z
" transform="scale(0.015625)"/>
     </defs>
     <use xlink:href="#TimesNewRomanPSMT-64"/>
     <use xlink:href="#TimesNewRomanPSMT-6f" x="50"/>
     <use xlink:href="#TimesNewRomanPSMT-20" x="100"/>
     <use xlink:href="#TimesNewRomanPSMT-76" x="125"/>
     <use xlink:href="#TimesNewRomanPSMT-69" x="175"/>
     <use xlink:href="#TimesNewRomanPSMT-6e" x="202.783203"/>
     <use xlink:href="#TimesNewRomanPSMT-68" x="252.783203"/>
     <use xlink:href="#TimesNewRomanPSMT-6f" x="302.783203"/>
     <use xlink:href="#TimesNewRomanPSMT-20" x="352.783203"/>
     <use xlink:href="#TimesNewRomanPSMT-62" x="377.783203"/>
     <use xlink:href="#TimesNewRomanPSMT-72" x="427.783203"/>
     <use xlink:href="#TimesNewRomanPSMT-61" x="461.083984"/>
     <use xlink:href="#TimesNewRomanPSMT-6e" x="505.46875"/>
     <use xlink:href="#TimesNewRomanPSMT-63" x="555.46875"/>
     <use xlink:href="#TimesNewRomanPSMT-6f" x="599.853516"/>
     <use xlink:href="#TimesNewRomanPSMT-20" x="649.853516"/>
     <use xlink:href="#TimesNewRomanPSMT-70" x="674.853516"/>
     <use xlink:href="#TimesNewRomanPSMT-61" x="724.853516"/>
     <use xlink:href="#TimesNewRomanPSMT-72" x="769.238281"/>
     <use xlink:href="#TimesNewRomanPSMT-61" x="802.539062"/>
     <use xlink:href="#TimesNewRomanPSMT-20" x="846.923828"/>
     <use xlink:href="#TimesNewRomanPSMT-6f" x="871.923828"/>
     <use xlink:href="#TimesNewRomanPSMT-20" x="921.923828"/>
     <use xlink:href="#TimesNewRomanPSMT-76" x="946.923828"/>
     <use xlink:href="#TimesNewRomanPSMT-69" x="996.923828"/>
     <use xlink:href="#TimesNewRomanPSMT-6e" x="1024.707031"/>
     <use xlink:href="#TimesNewRomanPSMT-68" x="1074.707031"/>
     <use xlink:href="#TimesNewRomanPSMT-6f" x="1124.707031"/>
     <use xlink:href="#TimesNewRomanPSMT-20" x="1174.707031"/>
     <use xlink:href="#TimesNewRomanPSMT-74" x="1199.707031"/>
     <use xlink:href="#TimesNewRomanPSMT-69" x="1227.490234"/>
     <use xlink:href="#TimesNewRomanPSMT-6e" x="1255.273438"/>
     <use xlink:href="#TimesNewRomanPSMT-74" x="1305.273438"/>
     <use xlink:href="#TimesNewRomanPSMT-6f" x="1333.056641"/>
     <use xlink:href="#TimesNewRomanPSMT-2e" x="1383.056641"/>
     <use xlink:href="#TimesNewRomanPSMT-20" x="1408.056641"/>
     <use xlink:href="#TimesNewRomanPSMT-45" x="1433.056641"/>
     <use xlink:href="#TimesNewRomanPSMT-73" x="1494.140625"/>
     <use xlink:href="#TimesNewRomanPSMT-73" x="1533.056641"/>
     <use xlink:href="#TimesNewRomanPSMT-61" x="1571.972656"/>
     <use xlink:href="#TimesNewRomanPSMT-20" x="1616.357422"/>
     <use xlink:href="#TimesNewRomanPSMT-64" x="1641.357422"/>
     <use xlink:href="#TimesNewRomanPSMT-69" x="1691.357422"/>
     <use xlink:href="#TimesNewRomanPSMT-73" x="1719.140625"/>
     <use xlink:href="#TimesNewRomanPSMT-74" x="1758.056641"/>
     <use xlink:href="#TimesNewRomanPSMT-69" x="1785.839844"/>
     <use xlink:href="#TimesNewRomanPSMT-6e" x="1813.623047"/>
     <use xlink:href="#TimesNewRomanPSMT-e7" x="1863.623047"/>
     <use xlink:href="#TimesNewRomanPSMT-e3" x="1908.007812"/>
     <use xlink:href="#TimesNewRomanPSMT-6f" x="1952.392578"/>
    </g>
    <!-- vai além da cor e abrange uma variedade de -->
    <g style="fill: #262626" transform="translate(525.899375 90.1425) scale(0.12 -0.12)">
     <defs>
      <path id="TimesNewRomanPSMT-e9" d="M 681 1784 
Q 678 1147 991 784 
Q 1303 422 1725 422 
Q 2006 422 2214 576 
Q 2422 731 2563 1106 
L 2659 1044 
Q 2594 616 2278 264 
Q 1963 -88 1488 -88 
Q 972 -88 605 314 
Q 238 716 238 1394 
Q 238 2128 614 2539 
Q 991 2950 1559 2950 
Q 2041 2950 2350 2633 
Q 2659 2316 2659 1784 
L 681 1784 
z
M 681 1966 
L 2006 1966 
Q 1991 2241 1941 2353 
Q 1863 2528 1708 2628 
Q 1553 2728 1384 2728 
Q 1125 2728 920 2526 
Q 716 2325 681 1966 
z
M 2172 4344 
L 1250 3266 
L 1144 3266 
L 1472 4344 
L 2172 4344 
z
" transform="scale(0.015625)"/>
     </defs>
     <use xlink:href="#TimesNewRomanPSMT-76"/>
     <use xlink:href="#TimesNewRomanPSMT-61" x="50"/>
     <use xlink:href="#TimesNewRomanPSMT-69" x="94.384766"/>
     <use xlink:href="#TimesNewRomanPSMT-20" x="122.167969"/>
     <use xlink:href="#TimesNewRomanPSMT-61" x="147.167969"/>
     <use xlink:href="#TimesNewRomanPSMT-6c" x="191.552734"/>
     <use xlink:href="#TimesNewRomanPSMT-e9" x="219.335938"/>
     <use xlink:href="#TimesNewRomanPSMT-6d" x="263.720703"/>
     <use xlink:href="#TimesNewRomanPSMT-20" x="341.503906"/>
     <use xlink:href="#TimesNewRomanPSMT-64" x="366.503906"/>
     <use xlink:href="#TimesNewRomanPSMT-61" x="416.503906"/>
     <use xlink:href="#TimesNewRomanPSMT-20" x="460.888672"/>
     <use xlink:href="#TimesNewRomanPSMT-63" x="485.888672"/>
     <use xlink:href="#TimesNewRomanPSMT-6f" x="530.273438"/>
     <use xlink:href="#TimesNewRomanPSMT-72" x="580.273438"/>
     <use xlink:href="#TimesNewRomanPSMT-20" x="613.574219"/>
     <use xlink:href="#TimesNewRomanPSMT-65" x="638.574219"/>
     <use xlink:href="#TimesNewRomanPSMT-20" x="682.958984"/>
     <use xlink:href="#TimesNewRomanPSMT-61" x="707.958984"/>
     <use xlink:href="#TimesNewRomanPSMT-62" x="752.34375"/>
     <use xlink:href="#TimesNewRomanPSMT-72" x="802.34375"/>
     <use xlink:href="#TimesNewRomanPSMT-61" x="835.644531"/>
     <use xlink:href="#TimesNewRomanPSMT-6e" x="880.029297"/>
     <use xlink:href="#TimesNewRomanPSMT-67" x="930.029297"/>
     <use xlink:href="#TimesNewRomanPSMT-65" x="980.029297"/>
     <use xlink:href="#TimesNewRomanPSMT-20" x="1024.414062"/>
     <use xlink:href="#TimesNewRomanPSMT-75" x="1049.414062"/>
     <use xlink:href="#TimesNewRomanPSMT-6d" x="1099.414062"/>
     <use xlink:href="#TimesNewRomanPSMT-61" x="1177.197266"/>
     <use xlink:href="#TimesNewRomanPSMT-20" x="1221.582031"/>
     <use xlink:href="#TimesNewRomanPSMT-76" x="1246.582031"/>
     <use xlink:href="#TimesNewRomanPSMT-61" x="1296.582031"/>
     <use xlink:href="#TimesNewRomanPSMT-72" x="1340.966797"/>
     <use xlink:href="#TimesNewRomanPSMT-69" x="1374.267578"/>
     <use xlink:href="#TimesNewRomanPSMT-65" x="1402.050781"/>
     <use xlink:href="#TimesNewRomanPSMT-64" x="1446.435547"/>
     <use xlink:href="#TimesNewRomanPSMT-61" x="1496.435547"/>
     <use xlink:href="#TimesNewRomanPSMT-64" x="1540.820312"/>
     <use xlink:href="#TimesNewRomanPSMT-65" x="1590.820312"/>
     <use xlink:href="#TimesNewRomanPSMT-20" x="1635.205078"/>
     <use xlink:href="#TimesNewRomanPSMT-64" x="1660.205078"/>
     <use xlink:href="#TimesNewRomanPSMT-65" x="1710.205078"/>
    </g>
    <!--  elementos, desde o processo de produção até as -->
    <g style="fill: #262626" transform="translate(515.714375 102.730875) scale(0.12 -0.12)">
     <defs>
      <path id="TimesNewRomanPSMT-2c" d="M 344 -1066 
L 344 -928 
Q 666 -822 842 -598 
Q 1019 -375 1019 -125 
Q 1019 -66 991 -25 
Q 969 3 947 3 
Q 913 3 797 -59 
Q 741 -88 678 -88 
Q 525 -88 434 3 
Q 344 94 344 253 
Q 344 406 461 515 
Q 578 625 747 625 
Q 953 625 1114 445 
Q 1275 266 1275 -31 
Q 1275 -353 1051 -629 
Q 828 -906 344 -1066 
z
" transform="scale(0.015625)"/>
     </defs>
     <use xlink:href="#TimesNewRomanPSMT-20"/>
     <use xlink:href="#TimesNewRomanPSMT-65" x="25"/>
     <use xlink:href="#TimesNewRomanPSMT-6c" x="69.384766"/>
     <use xlink:href="#TimesNewRomanPSMT-65" x="97.167969"/>
     <use xlink:href="#TimesNewRomanPSMT-6d" x="141.552734"/>
     <use xlink:href="#TimesNewRomanPSMT-65" x="219.335938"/>
     <use xlink:href="#TimesNewRomanPSMT-6e" x="263.720703"/>
     <use xlink:href="#TimesNewRomanPSMT-74" x="313.720703"/>
     <use xlink:href="#TimesNewRomanPSMT-6f" x="341.503906"/>
     <use xlink:href="#TimesNewRomanPSMT-73" x="391.503906"/>
     <use xlink:href="#TimesNewRomanPSMT-2c" x="430.419922"/>
     <use xlink:href="#TimesNewRomanPSMT-20" x="455.419922"/>
     <use xlink:href="#TimesNewRomanPSMT-64" x="480.419922"/>
     <use xlink:href="#TimesNewRomanPSMT-65" x="530.419922"/>
     <use xlink:href="#TimesNewRomanPSMT-73" x="574.804688"/>
     <use xlink:href="#TimesNewRomanPSMT-64" x="613.720703"/>
     <use xlink:href="#TimesNewRomanPSMT-65" x="663.720703"/>
     <use xlink:href="#TimesNewRomanPSMT-20" x="708.105469"/>
     <use xlink:href="#TimesNewRomanPSMT-6f" x="733.105469"/>
     <use xlink:href="#TimesNewRomanPSMT-20" x="783.105469"/>
     <use xlink:href="#TimesNewRomanPSMT-70" x="808.105469"/>
     <use xlink:href="#TimesNewRomanPSMT-72" x="858.105469"/>
     <use xlink:href="#TimesNewRomanPSMT-6f" x="891.40625"/>
     <use xlink:href="#TimesNewRomanPSMT-63" x="941.40625"/>
     <use xlink:href="#TimesNewRomanPSMT-65" x="985.791016"/>
     <use xlink:href="#TimesNewRomanPSMT-73" x="1030.175781"/>
     <use xlink:href="#TimesNewRomanPSMT-73" x="1069.091797"/>
     <use xlink:href="#TimesNewRomanPSMT-6f" x="1108.007812"/>
     <use xlink:href="#TimesNewRomanPSMT-20" x="1158.007812"/>
     <use xlink:href="#TimesNewRomanPSMT-64" x="1183.007812"/>
     <use xlink:href="#TimesNewRomanPSMT-65" x="1233.007812"/>
     <use xlink:href="#TimesNewRomanPSMT-20" x="1277.392578"/>
     <use xlink:href="#TimesNewRomanPSMT-70" x="1302.392578"/>
     <use xlink:href="#TimesNewRomanPSMT-72" x="1352.392578"/>
     <use xlink:href="#TimesNewRomanPSMT-6f" x="1385.693359"/>
     <use xlink:href="#TimesNewRomanPSMT-64" x="1435.693359"/>
     <use xlink:href="#TimesNewRomanPSMT-75" x="1485.693359"/>
     <use xlink:href="#TimesNewRomanPSMT-e7" x="1535.693359"/>
     <use xlink:href="#TimesNewRomanPSMT-e3" x="1580.078125"/>
     <use xlink:href="#TimesNewRomanPSMT-6f" x="1624.462891"/>
     <use xlink:href="#TimesNewRomanPSMT-20" x="1674.462891"/>
     <use xlink:href="#TimesNewRomanPSMT-61" x="1699.462891"/>
     <use xlink:href="#TimesNewRomanPSMT-74" x="1743.847656"/>
     <use xlink:href="#TimesNewRomanPSMT-e9" x="1771.630859"/>
     <use xlink:href="#TimesNewRomanPSMT-20" x="1816.015625"/>
     <use xlink:href="#TimesNewRomanPSMT-61" x="1841.015625"/>
     <use xlink:href="#TimesNewRomanPSMT-73" x="1885.400391"/>
    </g>
    <!--  características sensoriais únicas de cada tipo. -->
    <g style="fill: #262626" transform="translate(521.72 115.29675) scale(0.12 -0.12)">
     <defs>
      <path id="TimesNewRomanPSMT-ed" d="M 1184 2947 
L 1184 647 
Q 1184 378 1225 289 
Q 1266 200 1342 156 
Q 1419 113 1622 113 
L 1622 0 
L 231 0 
L 231 113 
Q 441 113 512 153 
Q 584 194 626 287 
Q 669 381 669 647 
L 669 1750 
Q 669 2216 641 2353 
Q 619 2453 572 2492 
Q 525 2531 444 2531 
Q 356 2531 231 2484 
L 188 2597 
L 1050 2947 
L 1184 2947 
z
M 1556 4344 
L 634 3266 
L 528 3266 
L 856 4344 
L 1556 4344 
z
" transform="scale(0.015625)"/>
      <path id="TimesNewRomanPSMT-fa" d="M 2709 2863 
L 2709 1128 
Q 2709 631 2732 520 
Q 2756 409 2807 365 
Q 2859 322 2928 322 
Q 3025 322 3147 375 
L 3191 266 
L 2334 -88 
L 2194 -88 
L 2194 519 
Q 1825 119 1631 15 
Q 1438 -88 1222 -88 
Q 981 -88 804 51 
Q 628 191 559 409 
Q 491 628 491 1028 
L 491 2306 
Q 491 2509 447 2587 
Q 403 2666 317 2708 
Q 231 2750 6 2747 
L 6 2863 
L 1009 2863 
L 1009 947 
Q 1009 547 1148 422 
Q 1288 297 1484 297 
Q 1619 297 1789 381 
Q 1959 466 2194 703 
L 2194 2325 
Q 2194 2569 2105 2655 
Q 2016 2741 1734 2747 
L 1734 2863 
L 2709 2863 
z
M 2184 4344 
L 1263 3266 
L 1156 3266 
L 1484 4344 
L 2184 4344 
z
" transform="scale(0.015625)"/>
     </defs>
     <use xlink:href="#TimesNewRomanPSMT-20"/>
     <use xlink:href="#TimesNewRomanPSMT-63" x="25"/>
     <use xlink:href="#TimesNewRomanPSMT-61" x="69.384766"/>
     <use xlink:href="#TimesNewRomanPSMT-72" x="113.769531"/>
     <use xlink:href="#TimesNewRomanPSMT-61" x="147.070312"/>
     <use xlink:href="#TimesNewRomanPSMT-63" x="191.455078"/>
     <use xlink:href="#TimesNewRomanPSMT-74" x="235.839844"/>
     <use xlink:href="#TimesNewRomanPSMT-65" x="263.623047"/>
     <use xlink:href="#TimesNewRomanPSMT-72" x="308.007812"/>
     <use xlink:href="#TimesNewRomanPSMT-ed" x="341.308594"/>
     <use xlink:href="#TimesNewRomanPSMT-73" x="369.091797"/>
     <use xlink:href="#TimesNewRomanPSMT-74" x="408.007812"/>
     <use xlink:href="#TimesNewRomanPSMT-69" x="435.791016"/>
     <use xlink:href="#TimesNewRomanPSMT-63" x="463.574219"/>
     <use xlink:href="#TimesNewRomanPSMT-61" x="507.958984"/>
     <use xlink:href="#TimesNewRomanPSMT-73" x="552.34375"/>
     <use xlink:href="#TimesNewRomanPSMT-20" x="591.259766"/>
     <use xlink:href="#TimesNewRomanPSMT-73" x="616.259766"/>
     <use xlink:href="#TimesNewRomanPSMT-65" x="655.175781"/>
     <use xlink:href="#TimesNewRomanPSMT-6e" x="699.560547"/>
     <use xlink:href="#TimesNewRomanPSMT-73" x="749.560547"/>
     <use xlink:href="#TimesNewRomanPSMT-6f" x="788.476562"/>
     <use xlink:href="#TimesNewRomanPSMT-72" x="838.476562"/>
     <use xlink:href="#TimesNewRomanPSMT-69" x="871.777344"/>
     <use xlink:href="#TimesNewRomanPSMT-61" x="899.560547"/>
     <use xlink:href="#TimesNewRomanPSMT-69" x="943.945312"/>
     <use xlink:href="#TimesNewRomanPSMT-73" x="971.728516"/>
     <use xlink:href="#TimesNewRomanPSMT-20" x="1010.644531"/>
     <use xlink:href="#TimesNewRomanPSMT-fa" x="1035.644531"/>
     <use xlink:href="#TimesNewRomanPSMT-6e" x="1085.644531"/>
     <use xlink:href="#TimesNewRomanPSMT-69" x="1135.644531"/>
     <use xlink:href="#TimesNewRomanPSMT-63" x="1163.427734"/>
     <use xlink:href="#TimesNewRomanPSMT-61" x="1207.8125"/>
     <use xlink:href="#TimesNewRomanPSMT-73" x="1252.197266"/>
     <use xlink:href="#TimesNewRomanPSMT-20" x="1291.113281"/>
     <use xlink:href="#TimesNewRomanPSMT-64" x="1316.113281"/>
     <use xlink:href="#TimesNewRomanPSMT-65" x="1366.113281"/>
     <use xlink:href="#TimesNewRomanPSMT-20" x="1410.498047"/>
     <use xlink:href="#TimesNewRomanPSMT-63" x="1435.498047"/>
     <use xlink:href="#TimesNewRomanPSMT-61" x="1479.882812"/>
     <use xlink:href="#TimesNewRomanPSMT-64" x="1524.267578"/>
     <use xlink:href="#TimesNewRomanPSMT-61" x="1574.267578"/>
     <use xlink:href="#TimesNewRomanPSMT-20" x="1618.652344"/>
     <use xlink:href="#TimesNewRomanPSMT-74" x="1643.652344"/>
     <use xlink:href="#TimesNewRomanPSMT-69" x="1671.435547"/>
     <use xlink:href="#TimesNewRomanPSMT-70" x="1699.21875"/>
     <use xlink:href="#TimesNewRomanPSMT-6f" x="1749.21875"/>
     <use xlink:href="#TimesNewRomanPSMT-2e" x="1799.21875"/>
    </g>
   </g>
   <g id="text_16">
    <!-- Esse gráfico foi criado com base em dados do ano de 2018 -->
    <g style="fill: #262626" transform="translate(53.040469 32.598937) scale(0.1 -0.1)">
     <defs>
      <path id="ArialMT-45" d="M 506 0 
L 506 4581 
L 3819 4581 
L 3819 4041 
L 1113 4041 
L 1113 2638 
L 3647 2638 
L 3647 2100 
L 1113 2100 
L 1113 541 
L 3925 541 
L 3925 0 
L 506 0 
z
" transform="scale(0.015625)"/>
      <path id="ArialMT-73" d="M 197 991 
L 753 1078 
Q 800 744 1014 566 
Q 1228 388 1613 388 
Q 2000 388 2187 545 
Q 2375 703 2375 916 
Q 2375 1106 2209 1216 
Q 2094 1291 1634 1406 
Q 1016 1563 777 1677 
Q 538 1791 414 1992 
Q 291 2194 291 2438 
Q 291 2659 392 2848 
Q 494 3038 669 3163 
Q 800 3259 1026 3326 
Q 1253 3394 1513 3394 
Q 1903 3394 2198 3281 
Q 2494 3169 2634 2976 
Q 2775 2784 2828 2463 
L 2278 2388 
Q 2241 2644 2061 2787 
Q 1881 2931 1553 2931 
Q 1166 2931 1000 2803 
Q 834 2675 834 2503 
Q 834 2394 903 2306 
Q 972 2216 1119 2156 
Q 1203 2125 1616 2013 
Q 2213 1853 2448 1751 
Q 2684 1650 2818 1456 
Q 2953 1263 2953 975 
Q 2953 694 2789 445 
Q 2625 197 2315 61 
Q 2006 -75 1616 -75 
Q 969 -75 630 194 
Q 291 463 197 991 
z
" transform="scale(0.015625)"/>
      <path id="ArialMT-20" transform="scale(0.015625)"/>
      <path id="ArialMT-67" d="M 319 -275 
L 866 -356 
Q 900 -609 1056 -725 
Q 1266 -881 1628 -881 
Q 2019 -881 2231 -725 
Q 2444 -569 2519 -288 
Q 2563 -116 2559 434 
Q 2191 0 1641 0 
Q 956 0 581 494 
Q 206 988 206 1678 
Q 206 2153 378 2554 
Q 550 2956 876 3175 
Q 1203 3394 1644 3394 
Q 2231 3394 2613 2919 
L 2613 3319 
L 3131 3319 
L 3131 450 
Q 3131 -325 2973 -648 
Q 2816 -972 2473 -1159 
Q 2131 -1347 1631 -1347 
Q 1038 -1347 672 -1080 
Q 306 -813 319 -275 
z
M 784 1719 
Q 784 1066 1043 766 
Q 1303 466 1694 466 
Q 2081 466 2343 764 
Q 2606 1063 2606 1700 
Q 2606 2309 2336 2618 
Q 2066 2928 1684 2928 
Q 1309 2928 1046 2623 
Q 784 2319 784 1719 
z
" transform="scale(0.015625)"/>
      <path id="ArialMT-e1" d="M 2588 409 
Q 2275 144 1986 34 
Q 1697 -75 1366 -75 
Q 819 -75 525 192 
Q 231 459 231 875 
Q 231 1119 342 1320 
Q 453 1522 633 1644 
Q 813 1766 1038 1828 
Q 1203 1872 1538 1913 
Q 2219 1994 2541 2106 
Q 2544 2222 2544 2253 
Q 2544 2597 2384 2738 
Q 2169 2928 1744 2928 
Q 1347 2928 1158 2789 
Q 969 2650 878 2297 
L 328 2372 
Q 403 2725 575 2942 
Q 747 3159 1072 3276 
Q 1397 3394 1825 3394 
Q 2250 3394 2515 3294 
Q 2781 3194 2906 3042 
Q 3031 2891 3081 2659 
Q 3109 2516 3109 2141 
L 3109 1391 
Q 3109 606 3145 398 
Q 3181 191 3288 0 
L 2700 0 
Q 2613 175 2588 409 
z
M 2541 1666 
Q 2234 1541 1622 1453 
Q 1275 1403 1131 1340 
Q 988 1278 909 1158 
Q 831 1038 831 891 
Q 831 666 1001 516 
Q 1172 366 1500 366 
Q 1825 366 2078 508 
Q 2331 650 2450 897 
Q 2541 1088 2541 1459 
L 2541 1666 
z
M 1447 3731 
L 1863 4606 
L 2600 4606 
L 1913 3731 
L 1447 3731 
z
" transform="scale(0.015625)"/>
      <path id="ArialMT-66" d="M 556 0 
L 556 2881 
L 59 2881 
L 59 3319 
L 556 3319 
L 556 3672 
Q 556 4006 616 4169 
Q 697 4388 901 4523 
Q 1106 4659 1475 4659 
Q 1713 4659 2000 4603 
L 1916 4113 
Q 1741 4144 1584 4144 
Q 1328 4144 1222 4034 
Q 1116 3925 1116 3625 
L 1116 3319 
L 1763 3319 
L 1763 2881 
L 1116 2881 
L 1116 0 
L 556 0 
z
" transform="scale(0.015625)"/>
      <path id="ArialMT-63" d="M 2588 1216 
L 3141 1144 
Q 3050 572 2676 248 
Q 2303 -75 1759 -75 
Q 1078 -75 664 370 
Q 250 816 250 1647 
Q 250 2184 428 2587 
Q 606 2991 970 3192 
Q 1334 3394 1763 3394 
Q 2303 3394 2647 3120 
Q 2991 2847 3088 2344 
L 2541 2259 
Q 2463 2594 2264 2762 
Q 2066 2931 1784 2931 
Q 1359 2931 1093 2626 
Q 828 2322 828 1663 
Q 828 994 1084 691 
Q 1341 388 1753 388 
Q 2084 388 2306 591 
Q 2528 794 2588 1216 
z
" transform="scale(0.015625)"/>
      <path id="ArialMT-6f" d="M 213 1659 
Q 213 2581 725 3025 
Q 1153 3394 1769 3394 
Q 2453 3394 2887 2945 
Q 3322 2497 3322 1706 
Q 3322 1066 3130 698 
Q 2938 331 2570 128 
Q 2203 -75 1769 -75 
Q 1072 -75 642 372 
Q 213 819 213 1659 
z
M 791 1659 
Q 791 1022 1069 705 
Q 1347 388 1769 388 
Q 2188 388 2466 706 
Q 2744 1025 2744 1678 
Q 2744 2294 2464 2611 
Q 2184 2928 1769 2928 
Q 1347 2928 1069 2612 
Q 791 2297 791 1659 
z
" transform="scale(0.015625)"/>
      <path id="ArialMT-61" d="M 2588 409 
Q 2275 144 1986 34 
Q 1697 -75 1366 -75 
Q 819 -75 525 192 
Q 231 459 231 875 
Q 231 1119 342 1320 
Q 453 1522 633 1644 
Q 813 1766 1038 1828 
Q 1203 1872 1538 1913 
Q 2219 1994 2541 2106 
Q 2544 2222 2544 2253 
Q 2544 2597 2384 2738 
Q 2169 2928 1744 2928 
Q 1347 2928 1158 2789 
Q 969 2650 878 2297 
L 328 2372 
Q 403 2725 575 2942 
Q 747 3159 1072 3276 
Q 1397 3394 1825 3394 
Q 2250 3394 2515 3294 
Q 2781 3194 2906 3042 
Q 3031 2891 3081 2659 
Q 3109 2516 3109 2141 
L 3109 1391 
Q 3109 606 3145 398 
Q 3181 191 3288 0 
L 2700 0 
Q 2613 175 2588 409 
z
M 2541 1666 
Q 2234 1541 1622 1453 
Q 1275 1403 1131 1340 
Q 988 1278 909 1158 
Q 831 1038 831 891 
Q 831 666 1001 516 
Q 1172 366 1500 366 
Q 1825 366 2078 508 
Q 2331 650 2450 897 
Q 2541 1088 2541 1459 
L 2541 1666 
z
" transform="scale(0.015625)"/>
      <path id="ArialMT-6d" d="M 422 0 
L 422 3319 
L 925 3319 
L 925 2853 
Q 1081 3097 1340 3245 
Q 1600 3394 1931 3394 
Q 2300 3394 2536 3241 
Q 2772 3088 2869 2813 
Q 3263 3394 3894 3394 
Q 4388 3394 4653 3120 
Q 4919 2847 4919 2278 
L 4919 0 
L 4359 0 
L 4359 2091 
Q 4359 2428 4304 2576 
Q 4250 2725 4106 2815 
Q 3963 2906 3769 2906 
Q 3419 2906 3187 2673 
Q 2956 2441 2956 1928 
L 2956 0 
L 2394 0 
L 2394 2156 
Q 2394 2531 2256 2718 
Q 2119 2906 1806 2906 
Q 1569 2906 1367 2781 
Q 1166 2656 1075 2415 
Q 984 2175 984 1722 
L 984 0 
L 422 0 
z
" transform="scale(0.015625)"/>
      <path id="ArialMT-62" d="M 941 0 
L 419 0 
L 419 4581 
L 981 4581 
L 981 2947 
Q 1338 3394 1891 3394 
Q 2197 3394 2470 3270 
Q 2744 3147 2920 2923 
Q 3097 2700 3197 2384 
Q 3297 2069 3297 1709 
Q 3297 856 2875 390 
Q 2453 -75 1863 -75 
Q 1275 -75 941 416 
L 941 0 
z
M 934 1684 
Q 934 1088 1097 822 
Q 1363 388 1816 388 
Q 2184 388 2453 708 
Q 2722 1028 2722 1663 
Q 2722 2313 2464 2622 
Q 2206 2931 1841 2931 
Q 1472 2931 1203 2611 
Q 934 2291 934 1684 
z
" transform="scale(0.015625)"/>
      <path id="ArialMT-6e" d="M 422 0 
L 422 3319 
L 928 3319 
L 928 2847 
Q 1294 3394 1984 3394 
Q 2284 3394 2536 3286 
Q 2788 3178 2913 3003 
Q 3038 2828 3088 2588 
Q 3119 2431 3119 2041 
L 3119 0 
L 2556 0 
L 2556 2019 
Q 2556 2363 2490 2533 
Q 2425 2703 2258 2804 
Q 2091 2906 1866 2906 
Q 1506 2906 1245 2678 
Q 984 2450 984 1813 
L 984 0 
L 422 0 
z
" transform="scale(0.015625)"/>
     </defs>
     <use xlink:href="#ArialMT-45"/>
     <use xlink:href="#ArialMT-73" x="66.699219"/>
     <use xlink:href="#ArialMT-73" x="116.699219"/>
     <use xlink:href="#ArialMT-65" x="166.699219"/>
     <use xlink:href="#ArialMT-20" x="222.314453"/>
     <use xlink:href="#ArialMT-67" x="250.097656"/>
     <use xlink:href="#ArialMT-72" x="305.712891"/>
     <use xlink:href="#ArialMT-e1" x="339.013672"/>
     <use xlink:href="#ArialMT-66" x="394.628906"/>
     <use xlink:href="#ArialMT-69" x="422.412109"/>
     <use xlink:href="#ArialMT-63" x="444.628906"/>
     <use xlink:href="#ArialMT-6f" x="494.628906"/>
     <use xlink:href="#ArialMT-20" x="550.244141"/>
     <use xlink:href="#ArialMT-66" x="578.027344"/>
     <use xlink:href="#ArialMT-6f" x="605.810547"/>
     <use xlink:href="#ArialMT-69" x="661.425781"/>
     <use xlink:href="#ArialMT-20" x="683.642578"/>
     <use xlink:href="#ArialMT-63" x="711.425781"/>
     <use xlink:href="#ArialMT-72" x="761.425781"/>
     <use xlink:href="#ArialMT-69" x="794.726562"/>
     <use xlink:href="#ArialMT-61" x="816.943359"/>
     <use xlink:href="#ArialMT-64" x="872.558594"/>
     <use xlink:href="#ArialMT-6f" x="928.173828"/>
     <use xlink:href="#ArialMT-20" x="983.789062"/>
     <use xlink:href="#ArialMT-63" x="1011.572266"/>
     <use xlink:href="#ArialMT-6f" x="1061.572266"/>
     <use xlink:href="#ArialMT-6d" x="1117.1875"/>
     <use xlink:href="#ArialMT-20" x="1200.488281"/>
     <use xlink:href="#ArialMT-62" x="1228.271484"/>
     <use xlink:href="#ArialMT-61" x="1283.886719"/>
     <use xlink:href="#ArialMT-73" x="1339.501953"/>
     <use xlink:href="#ArialMT-65" x="1389.501953"/>
     <use xlink:href="#ArialMT-20" x="1445.117188"/>
     <use xlink:href="#ArialMT-65" x="1472.900391"/>
     <use xlink:href="#ArialMT-6d" x="1528.515625"/>
     <use xlink:href="#ArialMT-20" x="1611.816406"/>
     <use xlink:href="#ArialMT-64" x="1639.599609"/>
     <use xlink:href="#ArialMT-61" x="1695.214844"/>
     <use xlink:href="#ArialMT-64" x="1750.830078"/>
     <use xlink:href="#ArialMT-6f" x="1806.445312"/>
     <use xlink:href="#ArialMT-73" x="1862.060547"/>
     <use xlink:href="#ArialMT-20" x="1912.060547"/>
     <use xlink:href="#ArialMT-64" x="1939.84375"/>
     <use xlink:href="#ArialMT-6f" x="1995.458984"/>
     <use xlink:href="#ArialMT-20" x="2051.074219"/>
     <use xlink:href="#ArialMT-61" x="2078.857422"/>
     <use xlink:href="#ArialMT-6e" x="2134.472656"/>
     <use xlink:href="#ArialMT-6f" x="2190.087891"/>
     <use xlink:href="#ArialMT-20" x="2245.703125"/>
     <use xlink:href="#ArialMT-64" x="2273.486328"/>
     <use xlink:href="#ArialMT-65" x="2329.101562"/>
     <use xlink:href="#ArialMT-20" x="2384.716797"/>
     <use xlink:href="#ArialMT-32" x="2412.5"/>
     <use xlink:href="#ArialMT-30" x="2468.115234"/>
     <use xlink:href="#ArialMT-31" x="2523.730469"/>
     <use xlink:href="#ArialMT-38" x="2579.345703"/>
    </g>
   </g>
   <g id="text_17">
    <!-- Além disso, a escolha da uva também desempenha -->
    <g style="fill: #262626" transform="translate(509.544687 154.802625) scale(0.12 -0.12)">
     <use xlink:href="#TimesNewRomanPSMT-41"/>
     <use xlink:href="#TimesNewRomanPSMT-6c" x="72.216797"/>
     <use xlink:href="#TimesNewRomanPSMT-e9" x="100"/>
     <use xlink:href="#TimesNewRomanPSMT-6d" x="144.384766"/>
     <use xlink:href="#TimesNewRomanPSMT-20" x="222.167969"/>
     <use xlink:href="#TimesNewRomanPSMT-64" x="247.167969"/>
     <use xlink:href="#TimesNewRomanPSMT-69" x="297.167969"/>
     <use xlink:href="#TimesNewRomanPSMT-73" x="324.951172"/>
     <use xlink:href="#TimesNewRomanPSMT-73" x="363.867188"/>
     <use xlink:href="#TimesNewRomanPSMT-6f" x="402.783203"/>
     <use xlink:href="#TimesNewRomanPSMT-2c" x="452.783203"/>
     <use xlink:href="#TimesNewRomanPSMT-20" x="477.783203"/>
     <use xlink:href="#TimesNewRomanPSMT-61" x="502.783203"/>
     <use xlink:href="#TimesNewRomanPSMT-20" x="547.167969"/>
     <use xlink:href="#TimesNewRomanPSMT-65" x="572.167969"/>
     <use xlink:href="#TimesNewRomanPSMT-73" x="616.552734"/>
     <use xlink:href="#TimesNewRomanPSMT-63" x="655.46875"/>
     <use xlink:href="#TimesNewRomanPSMT-6f" x="699.853516"/>
     <use xlink:href="#TimesNewRomanPSMT-6c" x="749.853516"/>
     <use xlink:href="#TimesNewRomanPSMT-68" x="777.636719"/>
     <use xlink:href="#TimesNewRomanPSMT-61" x="827.636719"/>
     <use xlink:href="#TimesNewRomanPSMT-20" x="872.021484"/>
     <use xlink:href="#TimesNewRomanPSMT-64" x="897.021484"/>
     <use xlink:href="#TimesNewRomanPSMT-61" x="947.021484"/>
     <use xlink:href="#TimesNewRomanPSMT-20" x="991.40625"/>
     <use xlink:href="#TimesNewRomanPSMT-75" x="1016.40625"/>
     <use xlink:href="#TimesNewRomanPSMT-76" x="1066.40625"/>
     <use xlink:href="#TimesNewRomanPSMT-61" x="1116.40625"/>
     <use xlink:href="#TimesNewRomanPSMT-20" x="1160.791016"/>
     <use xlink:href="#TimesNewRomanPSMT-74" x="1185.791016"/>
     <use xlink:href="#TimesNewRomanPSMT-61" x="1213.574219"/>
     <use xlink:href="#TimesNewRomanPSMT-6d" x="1257.958984"/>
     <use xlink:href="#TimesNewRomanPSMT-62" x="1335.742188"/>
     <use xlink:href="#TimesNewRomanPSMT-e9" x="1385.742188"/>
     <use xlink:href="#TimesNewRomanPSMT-6d" x="1430.126953"/>
     <use xlink:href="#TimesNewRomanPSMT-20" x="1507.910156"/>
     <use xlink:href="#TimesNewRomanPSMT-64" x="1532.910156"/>
     <use xlink:href="#TimesNewRomanPSMT-65" x="1582.910156"/>
     <use xlink:href="#TimesNewRomanPSMT-73" x="1627.294922"/>
     <use xlink:href="#TimesNewRomanPSMT-65" x="1666.210938"/>
     <use xlink:href="#TimesNewRomanPSMT-6d" x="1710.595703"/>
     <use xlink:href="#TimesNewRomanPSMT-70" x="1788.378906"/>
     <use xlink:href="#TimesNewRomanPSMT-65" x="1838.378906"/>
     <use xlink:href="#TimesNewRomanPSMT-6e" x="1882.763672"/>
     <use xlink:href="#TimesNewRomanPSMT-68" x="1932.763672"/>
     <use xlink:href="#TimesNewRomanPSMT-61" x="1982.763672"/>
    </g>
    <!--  um papel crucial. Enquanto variedades como Char- -->
    <g style="fill: #262626" transform="translate(506.675937 167.3685) scale(0.12 -0.12)">
     <defs>
      <path id="TimesNewRomanPSMT-43" d="M 3853 4334 
L 3950 2894 
L 3853 2894 
Q 3659 3541 3300 3825 
Q 2941 4109 2438 4109 
Q 2016 4109 1675 3895 
Q 1334 3681 1139 3212 
Q 944 2744 944 2047 
Q 944 1472 1128 1050 
Q 1313 628 1683 403 
Q 2053 178 2528 178 
Q 2941 178 3256 354 
Q 3572 531 3950 1056 
L 4047 994 
Q 3728 428 3303 165 
Q 2878 -97 2294 -97 
Q 1241 -97 663 684 
Q 231 1266 231 2053 
Q 231 2688 515 3219 
Q 800 3750 1298 4042 
Q 1797 4334 2388 4334 
Q 2847 4334 3294 4109 
Q 3425 4041 3481 4041 
Q 3566 4041 3628 4100 
Q 3709 4184 3744 4334 
L 3853 4334 
z
" transform="scale(0.015625)"/>
      <path id="TimesNewRomanPSMT-2d" d="M 259 1672 
L 1875 1672 
L 1875 1200 
L 259 1200 
L 259 1672 
z
" transform="scale(0.015625)"/>
     </defs>
     <use xlink:href="#TimesNewRomanPSMT-20"/>
     <use xlink:href="#TimesNewRomanPSMT-75" x="25"/>
     <use xlink:href="#TimesNewRomanPSMT-6d" x="75"/>
     <use xlink:href="#TimesNewRomanPSMT-20" x="152.783203"/>
     <use xlink:href="#TimesNewRomanPSMT-70" x="177.783203"/>
     <use xlink:href="#TimesNewRomanPSMT-61" x="227.783203"/>
     <use xlink:href="#TimesNewRomanPSMT-70" x="272.167969"/>
     <use xlink:href="#TimesNewRomanPSMT-65" x="322.167969"/>
     <use xlink:href="#TimesNewRomanPSMT-6c" x="366.552734"/>
     <use xlink:href="#TimesNewRomanPSMT-20" x="394.335938"/>
     <use xlink:href="#TimesNewRomanPSMT-63" x="419.335938"/>
     <use xlink:href="#TimesNewRomanPSMT-72" x="463.720703"/>
     <use xlink:href="#TimesNewRomanPSMT-75" x="497.021484"/>
     <use xlink:href="#TimesNewRomanPSMT-63" x="547.021484"/>
     <use xlink:href="#TimesNewRomanPSMT-69" x="591.40625"/>
     <use xlink:href="#TimesNewRomanPSMT-61" x="619.189453"/>
     <use xlink:href="#TimesNewRomanPSMT-6c" x="663.574219"/>
     <use xlink:href="#TimesNewRomanPSMT-2e" x="691.357422"/>
     <use xlink:href="#TimesNewRomanPSMT-20" x="716.357422"/>
     <use xlink:href="#TimesNewRomanPSMT-45" x="741.357422"/>
     <use xlink:href="#TimesNewRomanPSMT-6e" x="802.441406"/>
     <use xlink:href="#TimesNewRomanPSMT-71" x="852.441406"/>
     <use xlink:href="#TimesNewRomanPSMT-75" x="902.441406"/>
     <use xlink:href="#TimesNewRomanPSMT-61" x="952.441406"/>
     <use xlink:href="#TimesNewRomanPSMT-6e" x="996.826172"/>
     <use xlink:href="#TimesNewRomanPSMT-74" x="1046.826172"/>
     <use xlink:href="#TimesNewRomanPSMT-6f" x="1074.609375"/>
     <use xlink:href="#TimesNewRomanPSMT-20" x="1124.609375"/>
     <use xlink:href="#TimesNewRomanPSMT-76" x="1149.609375"/>
     <use xlink:href="#TimesNewRomanPSMT-61" x="1199.609375"/>
     <use xlink:href="#TimesNewRomanPSMT-72" x="1243.994141"/>
     <use xlink:href="#TimesNewRomanPSMT-69" x="1277.294922"/>
     <use xlink:href="#TimesNewRomanPSMT-65" x="1305.078125"/>
     <use xlink:href="#TimesNewRomanPSMT-64" x="1349.462891"/>
     <use xlink:href="#TimesNewRomanPSMT-61" x="1399.462891"/>
     <use xlink:href="#TimesNewRomanPSMT-64" x="1443.847656"/>
     <use xlink:href="#TimesNewRomanPSMT-65" x="1493.847656"/>
     <use xlink:href="#TimesNewRomanPSMT-73" x="1538.232422"/>
     <use xlink:href="#TimesNewRomanPSMT-20" x="1577.148438"/>
     <use xlink:href="#TimesNewRomanPSMT-63" x="1602.148438"/>
     <use xlink:href="#TimesNewRomanPSMT-6f" x="1646.533203"/>
     <use xlink:href="#TimesNewRomanPSMT-6d" x="1696.533203"/>
     <use xlink:href="#TimesNewRomanPSMT-6f" x="1774.316406"/>
     <use xlink:href="#TimesNewRomanPSMT-20" x="1824.316406"/>
     <use xlink:href="#TimesNewRomanPSMT-43" x="1849.316406"/>
     <use xlink:href="#TimesNewRomanPSMT-68" x="1916.015625"/>
     <use xlink:href="#TimesNewRomanPSMT-61" x="1966.015625"/>
     <use xlink:href="#TimesNewRomanPSMT-72" x="2010.400391"/>
     <use xlink:href="#TimesNewRomanPSMT-2d" x="2041.701172"/>
    </g>
    <!-- donnay e Sauvignon Blanc são frequentemente -->
    <g style="fill: #262626" transform="translate(518.376875 179.934375) scale(0.12 -0.12)">
     <defs>
      <path id="TimesNewRomanPSMT-79" d="M 38 2863 
L 1372 2863 
L 1372 2747 
L 1306 2747 
Q 1166 2747 1095 2686 
Q 1025 2625 1025 2534 
Q 1025 2413 1128 2197 
L 1825 753 
L 2466 2334 
Q 2519 2463 2519 2588 
Q 2519 2644 2497 2672 
Q 2472 2706 2419 2726 
Q 2366 2747 2231 2747 
L 2231 2863 
L 3163 2863 
L 3163 2747 
Q 3047 2734 2984 2696 
Q 2922 2659 2847 2556 
Q 2819 2513 2741 2316 
L 1575 -541 
Q 1406 -956 1132 -1168 
Q 859 -1381 606 -1381 
Q 422 -1381 303 -1275 
Q 184 -1169 184 -1031 
Q 184 -900 270 -820 
Q 356 -741 506 -741 
Q 609 -741 788 -809 
Q 913 -856 944 -856 
Q 1038 -856 1148 -759 
Q 1259 -663 1372 -384 
L 1575 113 
L 547 2272 
Q 500 2369 397 2513 
Q 319 2622 269 2659 
Q 197 2709 38 2747 
L 38 2863 
z
" transform="scale(0.015625)"/>
      <path id="TimesNewRomanPSMT-53" d="M 2934 4334 
L 2934 2869 
L 2819 2869 
Q 2763 3291 2617 3541 
Q 2472 3791 2203 3937 
Q 1934 4084 1647 4084 
Q 1322 4084 1109 3886 
Q 897 3688 897 3434 
Q 897 3241 1031 3081 
Q 1225 2847 1953 2456 
Q 2547 2138 2764 1967 
Q 2981 1797 3098 1565 
Q 3216 1334 3216 1081 
Q 3216 600 2842 251 
Q 2469 -97 1881 -97 
Q 1697 -97 1534 -69 
Q 1438 -53 1133 45 
Q 828 144 747 144 
Q 669 144 623 97 
Q 578 50 556 -97 
L 441 -97 
L 441 1356 
L 556 1356 
Q 638 900 775 673 
Q 913 447 1195 297 
Q 1478 147 1816 147 
Q 2206 147 2432 353 
Q 2659 559 2659 841 
Q 2659 997 2573 1156 
Q 2488 1316 2306 1453 
Q 2184 1547 1640 1851 
Q 1097 2156 867 2337 
Q 638 2519 519 2737 
Q 400 2956 400 3219 
Q 400 3675 750 4004 
Q 1100 4334 1641 4334 
Q 1978 4334 2356 4169 
Q 2531 4091 2603 4091 
Q 2684 4091 2736 4139 
Q 2788 4188 2819 4334 
L 2934 4334 
z
" transform="scale(0.015625)"/>
      <path id="TimesNewRomanPSMT-42" d="M 2956 2163 
Q 3397 2069 3616 1863 
Q 3919 1575 3919 1159 
Q 3919 844 3719 555 
Q 3519 266 3170 133 
Q 2822 0 2106 0 
L 106 0 
L 106 116 
L 266 116 
Q 531 116 647 284 
Q 719 394 719 750 
L 719 3488 
Q 719 3881 628 3984 
Q 506 4122 266 4122 
L 106 4122 
L 106 4238 
L 1938 4238 
Q 2450 4238 2759 4163 
Q 3228 4050 3475 3764 
Q 3722 3478 3722 3106 
Q 3722 2788 3528 2536 
Q 3334 2284 2956 2163 
z
M 1319 2331 
Q 1434 2309 1582 2298 
Q 1731 2288 1909 2288 
Q 2366 2288 2595 2386 
Q 2825 2484 2947 2687 
Q 3069 2891 3069 3131 
Q 3069 3503 2766 3765 
Q 2463 4028 1881 4028 
Q 1569 4028 1319 3959 
L 1319 2331 
z
M 1319 306 
Q 1681 222 2034 222 
Q 2600 222 2897 476 
Q 3194 731 3194 1106 
Q 3194 1353 3059 1581 
Q 2925 1809 2622 1940 
Q 2319 2072 1872 2072 
Q 1678 2072 1540 2065 
Q 1403 2059 1319 2044 
L 1319 306 
z
" transform="scale(0.015625)"/>
      <path id="TimesNewRomanPSMT-66" d="M 1319 2638 
L 1319 756 
Q 1319 356 1406 250 
Q 1522 113 1716 113 
L 1975 113 
L 1975 0 
L 266 0 
L 266 113 
L 394 113 
Q 519 113 622 175 
Q 725 238 764 344 
Q 803 450 803 756 
L 803 2638 
L 247 2638 
L 247 2863 
L 803 2863 
L 803 3050 
Q 803 3478 940 3775 
Q 1078 4072 1361 4255 
Q 1644 4438 1997 4438 
Q 2325 4438 2600 4225 
Q 2781 4084 2781 3909 
Q 2781 3816 2700 3733 
Q 2619 3650 2525 3650 
Q 2453 3650 2373 3701 
Q 2294 3753 2178 3923 
Q 2063 4094 1966 4153 
Q 1869 4213 1750 4213 
Q 1606 4213 1506 4136 
Q 1406 4059 1362 3898 
Q 1319 3738 1319 3069 
L 1319 2863 
L 2056 2863 
L 2056 2638 
L 1319 2638 
z
" transform="scale(0.015625)"/>
     </defs>
     <use xlink:href="#TimesNewRomanPSMT-64"/>
     <use xlink:href="#TimesNewRomanPSMT-6f" x="50"/>
     <use xlink:href="#TimesNewRomanPSMT-6e" x="100"/>
     <use xlink:href="#TimesNewRomanPSMT-6e" x="150"/>
     <use xlink:href="#TimesNewRomanPSMT-61" x="200"/>
     <use xlink:href="#TimesNewRomanPSMT-79" x="244.384766"/>
     <use xlink:href="#TimesNewRomanPSMT-20" x="294.384766"/>
     <use xlink:href="#TimesNewRomanPSMT-65" x="319.384766"/>
     <use xlink:href="#TimesNewRomanPSMT-20" x="363.769531"/>
     <use xlink:href="#TimesNewRomanPSMT-53" x="388.769531"/>
     <use xlink:href="#TimesNewRomanPSMT-61" x="444.384766"/>
     <use xlink:href="#TimesNewRomanPSMT-75" x="488.769531"/>
     <use xlink:href="#TimesNewRomanPSMT-76" x="538.769531"/>
     <use xlink:href="#TimesNewRomanPSMT-69" x="588.769531"/>
     <use xlink:href="#TimesNewRomanPSMT-67" x="616.552734"/>
     <use xlink:href="#TimesNewRomanPSMT-6e" x="666.552734"/>
     <use xlink:href="#TimesNewRomanPSMT-6f" x="716.552734"/>
     <use xlink:href="#TimesNewRomanPSMT-6e" x="766.552734"/>
     <use xlink:href="#TimesNewRomanPSMT-20" x="816.552734"/>
     <use xlink:href="#TimesNewRomanPSMT-42" x="841.552734"/>
     <use xlink:href="#TimesNewRomanPSMT-6c" x="908.251953"/>
     <use xlink:href="#TimesNewRomanPSMT-61" x="936.035156"/>
     <use xlink:href="#TimesNewRomanPSMT-6e" x="980.419922"/>
     <use xlink:href="#TimesNewRomanPSMT-63" x="1030.419922"/>
     <use xlink:href="#TimesNewRomanPSMT-20" x="1074.804688"/>
     <use xlink:href="#TimesNewRomanPSMT-73" x="1099.804688"/>
     <use xlink:href="#TimesNewRomanPSMT-e3" x="1138.720703"/>
     <use xlink:href="#TimesNewRomanPSMT-6f" x="1183.105469"/>
     <use xlink:href="#TimesNewRomanPSMT-20" x="1233.105469"/>
     <use xlink:href="#TimesNewRomanPSMT-66" x="1258.105469"/>
     <use xlink:href="#TimesNewRomanPSMT-72" x="1291.40625"/>
     <use xlink:href="#TimesNewRomanPSMT-65" x="1324.707031"/>
     <use xlink:href="#TimesNewRomanPSMT-71" x="1369.091797"/>
     <use xlink:href="#TimesNewRomanPSMT-75" x="1419.091797"/>
     <use xlink:href="#TimesNewRomanPSMT-65" x="1469.091797"/>
     <use xlink:href="#TimesNewRomanPSMT-6e" x="1513.476562"/>
     <use xlink:href="#TimesNewRomanPSMT-74" x="1563.476562"/>
     <use xlink:href="#TimesNewRomanPSMT-65" x="1591.259766"/>
     <use xlink:href="#TimesNewRomanPSMT-6d" x="1635.644531"/>
     <use xlink:href="#TimesNewRomanPSMT-65" x="1713.427734"/>
     <use xlink:href="#TimesNewRomanPSMT-6e" x="1757.8125"/>
     <use xlink:href="#TimesNewRomanPSMT-74" x="1807.8125"/>
     <use xlink:href="#TimesNewRomanPSMT-65" x="1835.595703"/>
    </g>
    <!--  associadas a vinhos brancos, uvas como Cabernet -->
    <g style="fill: #262626" transform="translate(510.540312 192.52275) scale(0.12 -0.12)">
     <use xlink:href="#TimesNewRomanPSMT-20"/>
     <use xlink:href="#TimesNewRomanPSMT-61" x="25"/>
     <use xlink:href="#TimesNewRomanPSMT-73" x="69.384766"/>
     <use xlink:href="#TimesNewRomanPSMT-73" x="108.300781"/>
     <use xlink:href="#TimesNewRomanPSMT-6f" x="147.216797"/>
     <use xlink:href="#TimesNewRomanPSMT-63" x="197.216797"/>
     <use xlink:href="#TimesNewRomanPSMT-69" x="241.601562"/>
     <use xlink:href="#TimesNewRomanPSMT-61" x="269.384766"/>
     <use xlink:href="#TimesNewRomanPSMT-64" x="313.769531"/>
     <use xlink:href="#TimesNewRomanPSMT-61" x="363.769531"/>
     <use xlink:href="#TimesNewRomanPSMT-73" x="408.154297"/>
     <use xlink:href="#TimesNewRomanPSMT-20" x="447.070312"/>
     <use xlink:href="#TimesNewRomanPSMT-61" x="472.070312"/>
     <use xlink:href="#TimesNewRomanPSMT-20" x="516.455078"/>
     <use xlink:href="#TimesNewRomanPSMT-76" x="541.455078"/>
     <use xlink:href="#TimesNewRomanPSMT-69" x="591.455078"/>
     <use xlink:href="#TimesNewRomanPSMT-6e" x="619.238281"/>
     <use xlink:href="#TimesNewRomanPSMT-68" x="669.238281"/>
     <use xlink:href="#TimesNewRomanPSMT-6f" x="719.238281"/>
     <use xlink:href="#TimesNewRomanPSMT-73" x="769.238281"/>
     <use xlink:href="#TimesNewRomanPSMT-20" x="808.154297"/>
     <use xlink:href="#TimesNewRomanPSMT-62" x="833.154297"/>
     <use xlink:href="#TimesNewRomanPSMT-72" x="883.154297"/>
     <use xlink:href="#TimesNewRomanPSMT-61" x="916.455078"/>
     <use xlink:href="#TimesNewRomanPSMT-6e" x="960.839844"/>
     <use xlink:href="#TimesNewRomanPSMT-63" x="1010.839844"/>
     <use xlink:href="#TimesNewRomanPSMT-6f" x="1055.224609"/>
     <use xlink:href="#TimesNewRomanPSMT-73" x="1105.224609"/>
     <use xlink:href="#TimesNewRomanPSMT-2c" x="1144.140625"/>
     <use xlink:href="#TimesNewRomanPSMT-20" x="1169.140625"/>
     <use xlink:href="#TimesNewRomanPSMT-75" x="1194.140625"/>
     <use xlink:href="#TimesNewRomanPSMT-76" x="1244.140625"/>
     <use xlink:href="#TimesNewRomanPSMT-61" x="1294.140625"/>
     <use xlink:href="#TimesNewRomanPSMT-73" x="1338.525391"/>
     <use xlink:href="#TimesNewRomanPSMT-20" x="1377.441406"/>
     <use xlink:href="#TimesNewRomanPSMT-63" x="1402.441406"/>
     <use xlink:href="#TimesNewRomanPSMT-6f" x="1446.826172"/>
     <use xlink:href="#TimesNewRomanPSMT-6d" x="1496.826172"/>
     <use xlink:href="#TimesNewRomanPSMT-6f" x="1574.609375"/>
     <use xlink:href="#TimesNewRomanPSMT-20" x="1624.609375"/>
     <use xlink:href="#TimesNewRomanPSMT-43" x="1649.609375"/>
     <use xlink:href="#TimesNewRomanPSMT-61" x="1716.308594"/>
     <use xlink:href="#TimesNewRomanPSMT-62" x="1760.693359"/>
     <use xlink:href="#TimesNewRomanPSMT-65" x="1810.693359"/>
     <use xlink:href="#TimesNewRomanPSMT-72" x="1855.078125"/>
     <use xlink:href="#TimesNewRomanPSMT-6e" x="1888.378906"/>
     <use xlink:href="#TimesNewRomanPSMT-65" x="1938.378906"/>
     <use xlink:href="#TimesNewRomanPSMT-74" x="1982.763672"/>
    </g>
    <!--  Sauvignon e Merlot destacam-se na produção de -->
    <g style="fill: #262626" transform="translate(513.047187 205.088625) scale(0.12 -0.12)">
     <defs>
      <path id="TimesNewRomanPSMT-4d" d="M 2619 0 
L 981 3566 
L 981 734 
Q 981 344 1066 247 
Q 1181 116 1431 116 
L 1581 116 
L 1581 0 
L 106 0 
L 106 116 
L 256 116 
Q 525 116 638 278 
Q 706 378 706 734 
L 706 3503 
Q 706 3784 644 3909 
Q 600 4000 483 4061 
Q 366 4122 106 4122 
L 106 4238 
L 1306 4238 
L 2844 922 
L 4356 4238 
L 5556 4238 
L 5556 4122 
L 5409 4122 
Q 5138 4122 5025 3959 
Q 4956 3859 4956 3503 
L 4956 734 
Q 4956 344 5044 247 
Q 5159 116 5409 116 
L 5556 116 
L 5556 0 
L 3756 0 
L 3756 116 
L 3906 116 
Q 4178 116 4288 278 
Q 4356 378 4356 734 
L 4356 3566 
L 2722 0 
L 2619 0 
z
" transform="scale(0.015625)"/>
     </defs>
     <use xlink:href="#TimesNewRomanPSMT-20"/>
     <use xlink:href="#TimesNewRomanPSMT-53" x="25"/>
     <use xlink:href="#TimesNewRomanPSMT-61" x="80.615234"/>
     <use xlink:href="#TimesNewRomanPSMT-75" x="125"/>
     <use xlink:href="#TimesNewRomanPSMT-76" x="175"/>
     <use xlink:href="#TimesNewRomanPSMT-69" x="225"/>
     <use xlink:href="#TimesNewRomanPSMT-67" x="252.783203"/>
     <use xlink:href="#TimesNewRomanPSMT-6e" x="302.783203"/>
     <use xlink:href="#TimesNewRomanPSMT-6f" x="352.783203"/>
     <use xlink:href="#TimesNewRomanPSMT-6e" x="402.783203"/>
     <use xlink:href="#TimesNewRomanPSMT-20" x="452.783203"/>
     <use xlink:href="#TimesNewRomanPSMT-65" x="477.783203"/>
     <use xlink:href="#TimesNewRomanPSMT-20" x="522.167969"/>
     <use xlink:href="#TimesNewRomanPSMT-4d" x="547.167969"/>
     <use xlink:href="#TimesNewRomanPSMT-65" x="636.083984"/>
     <use xlink:href="#TimesNewRomanPSMT-72" x="680.46875"/>
     <use xlink:href="#TimesNewRomanPSMT-6c" x="713.769531"/>
     <use xlink:href="#TimesNewRomanPSMT-6f" x="741.552734"/>
     <use xlink:href="#TimesNewRomanPSMT-74" x="791.552734"/>
     <use xlink:href="#TimesNewRomanPSMT-20" x="819.335938"/>
     <use xlink:href="#TimesNewRomanPSMT-64" x="844.335938"/>
     <use xlink:href="#TimesNewRomanPSMT-65" x="894.335938"/>
     <use xlink:href="#TimesNewRomanPSMT-73" x="938.720703"/>
     <use xlink:href="#TimesNewRomanPSMT-74" x="977.636719"/>
     <use xlink:href="#TimesNewRomanPSMT-61" x="1005.419922"/>
     <use xlink:href="#TimesNewRomanPSMT-63" x="1049.804688"/>
     <use xlink:href="#TimesNewRomanPSMT-61" x="1094.189453"/>
     <use xlink:href="#TimesNewRomanPSMT-6d" x="1138.574219"/>
     <use xlink:href="#TimesNewRomanPSMT-2d" x="1216.357422"/>
     <use xlink:href="#TimesNewRomanPSMT-73" x="1249.658203"/>
     <use xlink:href="#TimesNewRomanPSMT-65" x="1288.574219"/>
     <use xlink:href="#TimesNewRomanPSMT-20" x="1332.958984"/>
     <use xlink:href="#TimesNewRomanPSMT-6e" x="1357.958984"/>
     <use xlink:href="#TimesNewRomanPSMT-61" x="1407.958984"/>
     <use xlink:href="#TimesNewRomanPSMT-20" x="1452.34375"/>
     <use xlink:href="#TimesNewRomanPSMT-70" x="1477.34375"/>
     <use xlink:href="#TimesNewRomanPSMT-72" x="1527.34375"/>
     <use xlink:href="#TimesNewRomanPSMT-6f" x="1560.644531"/>
     <use xlink:href="#TimesNewRomanPSMT-64" x="1610.644531"/>
     <use xlink:href="#TimesNewRomanPSMT-75" x="1660.644531"/>
     <use xlink:href="#TimesNewRomanPSMT-e7" x="1710.644531"/>
     <use xlink:href="#TimesNewRomanPSMT-e3" x="1755.029297"/>
     <use xlink:href="#TimesNewRomanPSMT-6f" x="1799.414062"/>
     <use xlink:href="#TimesNewRomanPSMT-20" x="1849.414062"/>
     <use xlink:href="#TimesNewRomanPSMT-64" x="1874.414062"/>
     <use xlink:href="#TimesNewRomanPSMT-65" x="1924.414062"/>
    </g>
    <!--  vinhos tintos. -->
    <g style="fill: #262626" transform="translate(597.340625 217.677) scale(0.12 -0.12)">
     <use xlink:href="#TimesNewRomanPSMT-20"/>
     <use xlink:href="#TimesNewRomanPSMT-76" x="25"/>
     <use xlink:href="#TimesNewRomanPSMT-69" x="75"/>
     <use xlink:href="#TimesNewRomanPSMT-6e" x="102.783203"/>
     <use xlink:href="#TimesNewRomanPSMT-68" x="152.783203"/>
     <use xlink:href="#TimesNewRomanPSMT-6f" x="202.783203"/>
     <use xlink:href="#TimesNewRomanPSMT-73" x="252.783203"/>
     <use xlink:href="#TimesNewRomanPSMT-20" x="291.699219"/>
     <use xlink:href="#TimesNewRomanPSMT-74" x="316.699219"/>
     <use xlink:href="#TimesNewRomanPSMT-69" x="344.482422"/>
     <use xlink:href="#TimesNewRomanPSMT-6e" x="372.265625"/>
     <use xlink:href="#TimesNewRomanPSMT-74" x="422.265625"/>
     <use xlink:href="#TimesNewRomanPSMT-6f" x="450.048828"/>
     <use xlink:href="#TimesNewRomanPSMT-73" x="500.048828"/>
     <use xlink:href="#TimesNewRomanPSMT-2e" x="538.964844"/>
    </g>
    <!--  -->
    <g style="fill: #262626" transform="translate(631.17875 230.242875) scale(0.12 -0.12)"/>
    <!--  Fonte: Wine Enthusiast. -->
    <g style="fill: #262626" transform="translate(572.196875 242.80875) scale(0.12 -0.12)">
     <defs>
      <path id="TimesNewRomanPSMT-46" d="M 1309 4006 
L 1309 2341 
L 2081 2341 
Q 2347 2341 2470 2458 
Q 2594 2575 2634 2922 
L 2750 2922 
L 2750 1488 
L 2634 1488 
Q 2631 1734 2570 1850 
Q 2509 1966 2401 2023 
Q 2294 2081 2081 2081 
L 1309 2081 
L 1309 750 
Q 1309 428 1350 325 
Q 1381 247 1481 191 
Q 1619 116 1769 116 
L 1922 116 
L 1922 0 
L 103 0 
L 103 116 
L 253 116 
Q 516 116 634 269 
Q 709 369 709 750 
L 709 3488 
Q 709 3809 669 3913 
Q 638 3991 541 4047 
Q 406 4122 253 4122 
L 103 4122 
L 103 4238 
L 3256 4238 
L 3297 3306 
L 3188 3306 
Q 3106 3603 2998 3742 
Q 2891 3881 2733 3943 
Q 2575 4006 2244 4006 
L 1309 4006 
z
" transform="scale(0.015625)"/>
      <path id="TimesNewRomanPSMT-3a" d="M 903 2950 
Q 1047 2950 1148 2848 
Q 1250 2747 1250 2603 
Q 1250 2459 1148 2357 
Q 1047 2256 903 2256 
Q 759 2256 657 2357 
Q 556 2459 556 2603 
Q 556 2747 657 2848 
Q 759 2950 903 2950 
z
M 897 609 
Q 1044 609 1145 506 
Q 1247 403 1247 259 
Q 1247 116 1144 14 
Q 1041 -88 897 -88 
Q 753 -88 651 14 
Q 550 116 550 259 
Q 550 403 651 506 
Q 753 609 897 609 
z
" transform="scale(0.015625)"/>
      <path id="TimesNewRomanPSMT-57" d="M 5991 4238 
L 5991 4122 
Q 5825 4122 5722 4062 
Q 5619 4003 5525 3841 
Q 5463 3731 5328 3319 
L 4147 -97 
L 4022 -97 
L 3056 2613 
L 2097 -97 
L 1984 -97 
L 725 3422 
Q 584 3816 547 3888 
Q 484 4006 376 4064 
Q 269 4122 84 4122 
L 84 4238 
L 1653 4238 
L 1653 4122 
L 1578 4122 
Q 1413 4122 1325 4047 
Q 1238 3972 1238 3866 
Q 1238 3756 1375 3363 
L 2209 984 
L 2913 3006 
L 2788 3363 
L 2688 3647 
Q 2622 3803 2541 3922 
Q 2500 3981 2441 4022 
Q 2363 4078 2284 4103 
Q 2225 4122 2097 4122 
L 2097 4238 
L 3747 4238 
L 3747 4122 
L 3634 4122 
Q 3459 4122 3378 4047 
Q 3297 3972 3297 3844 
Q 3297 3684 3438 3288 
L 4250 984 
L 5056 3319 
Q 5194 3706 5194 3856 
Q 5194 3928 5148 3990 
Q 5103 4053 5034 4078 
Q 4916 4122 4725 4122 
L 4725 4238 
L 5991 4238 
z
" transform="scale(0.015625)"/>
     </defs>
     <use xlink:href="#TimesNewRomanPSMT-20"/>
     <use xlink:href="#TimesNewRomanPSMT-46" x="25"/>
     <use xlink:href="#TimesNewRomanPSMT-6f" x="80.615234"/>
     <use xlink:href="#TimesNewRomanPSMT-6e" x="130.615234"/>
     <use xlink:href="#TimesNewRomanPSMT-74" x="180.615234"/>
     <use xlink:href="#TimesNewRomanPSMT-65" x="208.398438"/>
     <use xlink:href="#TimesNewRomanPSMT-3a" x="252.783203"/>
     <use xlink:href="#TimesNewRomanPSMT-20" x="280.566406"/>
     <use xlink:href="#TimesNewRomanPSMT-57" x="303.816406"/>
     <use xlink:href="#TimesNewRomanPSMT-69" x="394.201172"/>
     <use xlink:href="#TimesNewRomanPSMT-6e" x="421.984375"/>
     <use xlink:href="#TimesNewRomanPSMT-65" x="471.984375"/>
     <use xlink:href="#TimesNewRomanPSMT-20" x="516.369141"/>
     <use xlink:href="#TimesNewRomanPSMT-45" x="541.369141"/>
     <use xlink:href="#TimesNewRomanPSMT-6e" x="602.453125"/>
     <use xlink:href="#TimesNewRomanPSMT-74" x="652.453125"/>
     <use xlink:href="#TimesNewRomanPSMT-68" x="680.236328"/>
     <use xlink:href="#TimesNewRomanPSMT-75" x="730.236328"/>
     <use xlink:href="#TimesNewRomanPSMT-73" x="780.236328"/>
     <use xlink:href="#TimesNewRomanPSMT-69" x="819.152344"/>
     <use xlink:href="#TimesNewRomanPSMT-61" x="846.935547"/>
     <use xlink:href="#TimesNewRomanPSMT-73" x="891.320312"/>
     <use xlink:href="#TimesNewRomanPSMT-74" x="930.236328"/>
     <use xlink:href="#TimesNewRomanPSMT-2e" x="958.019531"/>
    </g>
   </g>
   <g id="text_18">
    <!-- Quantidade de vinhos de cada tipo com 8 ou mais pontos de qualidade -->
    <g style="fill: #262626" transform="translate(50.85875 17.615625) scale(0.15 -0.15)">
     <defs>
      <path id="TimesNewRomanPSMT-38" d="M 1228 2134 
Q 725 2547 579 2797 
Q 434 3047 434 3316 
Q 434 3728 753 4026 
Q 1072 4325 1600 4325 
Q 2113 4325 2425 4047 
Q 2738 3769 2738 3413 
Q 2738 3175 2569 2928 
Q 2400 2681 1866 2347 
Q 2416 1922 2594 1678 
Q 2831 1359 2831 1006 
Q 2831 559 2490 242 
Q 2150 -75 1597 -75 
Q 994 -75 656 303 
Q 388 606 388 966 
Q 388 1247 577 1523 
Q 766 1800 1228 2134 
z
M 1719 2469 
Q 2094 2806 2194 3001 
Q 2294 3197 2294 3444 
Q 2294 3772 2109 3958 
Q 1925 4144 1606 4144 
Q 1288 4144 1088 3959 
Q 888 3775 888 3528 
Q 888 3366 970 3203 
Q 1053 3041 1206 2894 
L 1719 2469 
z
M 1375 2016 
Q 1116 1797 991 1539 
Q 866 1281 866 981 
Q 866 578 1086 336 
Q 1306 94 1647 94 
Q 1984 94 2187 284 
Q 2391 475 2391 747 
Q 2391 972 2272 1150 
Q 2050 1481 1375 2016 
z
" transform="scale(0.015625)"/>
     </defs>
     <use xlink:href="#TimesNewRomanPSMT-51"/>
     <use xlink:href="#TimesNewRomanPSMT-75" x="72.216797"/>
     <use xlink:href="#TimesNewRomanPSMT-61" x="122.216797"/>
     <use xlink:href="#TimesNewRomanPSMT-6e" x="166.601562"/>
     <use xlink:href="#TimesNewRomanPSMT-74" x="216.601562"/>
     <use xlink:href="#TimesNewRomanPSMT-69" x="244.384766"/>
     <use xlink:href="#TimesNewRomanPSMT-64" x="272.167969"/>
     <use xlink:href="#TimesNewRomanPSMT-61" x="322.167969"/>
     <use xlink:href="#TimesNewRomanPSMT-64" x="366.552734"/>
     <use xlink:href="#TimesNewRomanPSMT-65" x="416.552734"/>
     <use xlink:href="#TimesNewRomanPSMT-20" x="460.9375"/>
     <use xlink:href="#TimesNewRomanPSMT-64" x="485.9375"/>
     <use xlink:href="#TimesNewRomanPSMT-65" x="535.9375"/>
     <use xlink:href="#TimesNewRomanPSMT-20" x="580.322266"/>
     <use xlink:href="#TimesNewRomanPSMT-76" x="605.322266"/>
     <use xlink:href="#TimesNewRomanPSMT-69" x="655.322266"/>
     <use xlink:href="#TimesNewRomanPSMT-6e" x="683.105469"/>
     <use xlink:href="#TimesNewRomanPSMT-68" x="733.105469"/>
     <use xlink:href="#TimesNewRomanPSMT-6f" x="783.105469"/>
     <use xlink:href="#TimesNewRomanPSMT-73" x="833.105469"/>
     <use xlink:href="#TimesNewRomanPSMT-20" x="872.021484"/>
     <use xlink:href="#TimesNewRomanPSMT-64" x="897.021484"/>
     <use xlink:href="#TimesNewRomanPSMT-65" x="947.021484"/>
     <use xlink:href="#TimesNewRomanPSMT-20" x="991.40625"/>
     <use xlink:href="#TimesNewRomanPSMT-63" x="1016.40625"/>
     <use xlink:href="#TimesNewRomanPSMT-61" x="1060.791016"/>
     <use xlink:href="#TimesNewRomanPSMT-64" x="1105.175781"/>
     <use xlink:href="#TimesNewRomanPSMT-61" x="1155.175781"/>
     <use xlink:href="#TimesNewRomanPSMT-20" x="1199.560547"/>
     <use xlink:href="#TimesNewRomanPSMT-74" x="1224.560547"/>
     <use xlink:href="#TimesNewRomanPSMT-69" x="1252.34375"/>
     <use xlink:href="#TimesNewRomanPSMT-70" x="1280.126953"/>
     <use xlink:href="#TimesNewRomanPSMT-6f" x="1330.126953"/>
     <use xlink:href="#TimesNewRomanPSMT-20" x="1380.126953"/>
     <use xlink:href="#TimesNewRomanPSMT-63" x="1405.126953"/>
     <use xlink:href="#TimesNewRomanPSMT-6f" x="1449.511719"/>
     <use xlink:href="#TimesNewRomanPSMT-6d" x="1499.511719"/>
     <use xlink:href="#TimesNewRomanPSMT-20" x="1577.294922"/>
     <use xlink:href="#TimesNewRomanPSMT-38" x="1602.294922"/>
     <use xlink:href="#TimesNewRomanPSMT-20" x="1652.294922"/>
     <use xlink:href="#TimesNewRomanPSMT-6f" x="1677.294922"/>
     <use xlink:href="#TimesNewRomanPSMT-75" x="1727.294922"/>
     <use xlink:href="#TimesNewRomanPSMT-20" x="1777.294922"/>
     <use xlink:href="#TimesNewRomanPSMT-6d" x="1802.294922"/>
     <use xlink:href="#TimesNewRomanPSMT-61" x="1880.078125"/>
     <use xlink:href="#TimesNewRomanPSMT-69" x="1924.462891"/>
     <use xlink:href="#TimesNewRomanPSMT-73" x="1952.246094"/>
     <use xlink:href="#TimesNewRomanPSMT-20" x="1991.162109"/>
     <use xlink:href="#TimesNewRomanPSMT-70" x="2016.162109"/>
     <use xlink:href="#TimesNewRomanPSMT-6f" x="2066.162109"/>
     <use xlink:href="#TimesNewRomanPSMT-6e" x="2116.162109"/>
     <use xlink:href="#TimesNewRomanPSMT-74" x="2166.162109"/>
     <use xlink:href="#TimesNewRomanPSMT-6f" x="2193.945312"/>
     <use xlink:href="#TimesNewRomanPSMT-73" x="2243.945312"/>
     <use xlink:href="#TimesNewRomanPSMT-20" x="2282.861328"/>
     <use xlink:href="#TimesNewRomanPSMT-64" x="2307.861328"/>
     <use xlink:href="#TimesNewRomanPSMT-65" x="2357.861328"/>
     <use xlink:href="#TimesNewRomanPSMT-20" x="2402.246094"/>
     <use xlink:href="#TimesNewRomanPSMT-71" x="2427.246094"/>
     <use xlink:href="#TimesNewRomanPSMT-75" x="2477.246094"/>
     <use xlink:href="#TimesNewRomanPSMT-61" x="2527.246094"/>
     <use xlink:href="#TimesNewRomanPSMT-6c" x="2571.630859"/>
     <use xlink:href="#TimesNewRomanPSMT-69" x="2599.414062"/>
     <use xlink:href="#TimesNewRomanPSMT-64" x="2627.197266"/>
     <use xlink:href="#TimesNewRomanPSMT-61" x="2677.197266"/>
     <use xlink:href="#TimesNewRomanPSMT-64" x="2721.582031"/>
     <use xlink:href="#TimesNewRomanPSMT-65" x="2771.582031"/>
    </g>
   </g>
  </g>
 </g>
 <defs>
  <clipPath id="pe90ccd4795">
   <rect x="50.85875" y="51.335625" width="446.4" height="277.2"/>
  </clipPath>
 </defs>
</svg>
